<?xml version="1.0" encoding="utf-8"?>
<!-- Generator: Adobe Illustrator 16.0.4, SVG Export Plug-In . SVG Version: 6.00 Build 0)  -->
<!DOCTYPE svg PUBLIC "-//W3C//DTD SVG 1.1//EN" "http://www.w3.org/Graphics/SVG/1.1/DTD/svg11.dtd">
<svg version="1.1" id="Layer_1" xmlns="http://www.w3.org/2000/svg" xmlns:xlink="http://www.w3.org/1999/xlink" x="0px" y="0px"
	 width="140px" height="86px" viewBox="0 0 140 86" enable-background="new 0 0 140 86" xml:space="preserve">
<g>
	<path fill="#FFFFFF" d="M70.7,16.1c0.7,0,1.1-0.4,1.1-0.9V15c-0.2-0.1-0.6-0.2-0.9-0.2c-0.6,0-1,0.2-1,0.7v0
		C70,15.9,70.3,16.1,70.7,16.1z"/>
	<path fill="#FFFFFF" d="M82.9,23.4c0.4,0,0.6-0.2,0.6-0.5v0c0-0.3-0.2-0.5-0.6-0.5c-0.4,0-0.6,0.2-0.6,0.5v0
		C82.3,23.2,82.5,23.4,82.9,23.4z"/>
	<polygon fill="#FFFFFF" points="57.5,21.5 56.6,22.6 57.5,22.6 	"/>
	<path fill="#FFFFFF" d="M105,50c0-0.6-0.4-1-1-1H33c-0.6,0-1,0.4-1,1s0.4,1,1,1h71C104.6,51,105,50.6,105,50z"/>
	<path fill="#FFFFFF" d="M33,30h47c0.6,0,1-0.4,1-1s-0.4-1-1-1H33c-0.6,0-1,0.4-1,1S32.4,30,33,30z"/>
	<path fill="#FFFFFF" d="M119,78H79c0,1.7-1.3,3-3,3H62c-1.7,0-3-1.3-3-3H20h-1.1H2v4c0,1.1,0.8,2,1.9,2h132c1.1,0,2.1-0.9,2.1-2v-4
		h-17.1H119z"/>
	<path fill="#FFFFFF" d="M108.6,23.4c0.4,0,0.6-0.2,0.6-0.4v0c0-0.3-0.3-0.4-0.6-0.4c-0.3,0-0.6,0.2-0.6,0.4v0
		C108,23.2,108.2,23.4,108.6,23.4z"/>
	<path fill="#FFFFFF" d="M60,44h29c0.6,0,1-0.4,1-1s-0.4-1-1-1H60c-0.6,0-1,0.4-1,1S59.4,44,60,44z"/>
	<path fill="#FFFFFF" d="M73,36c0-0.6-0.4-1-1-1H43c-0.6,0-1,0.4-1,1s0.4,1,1,1h29C72.6,37,73,36.6,73,36z"/>
	<path fill="#FFFFFF" d="M108.6,21.9c0.3,0,0.5-0.2,0.5-0.4v0c0-0.2-0.2-0.4-0.5-0.4s-0.5,0.2-0.5,0.4v0
		C108.1,21.7,108.3,21.9,108.6,21.9z"/>
	<path fill="#FFFFFF" d="M116,7H24v64h92V7z M107.2,23c0-0.4,0.2-0.7,0.6-0.8c-0.3-0.2-0.4-0.4-0.4-0.8v0c0-0.5,0.5-1,1.2-1
		c0.7,0,1.2,0.4,1.2,1v0c0,0.4-0.2,0.6-0.4,0.8c0.4,0.2,0.6,0.4,0.6,0.8v0c0,0.6-0.6,1-1.4,1S107.2,23.6,107.2,23L107.2,23z
		 M97.1,20.8c0,0.1,0,0.3-0.1,0.4l-1.4,2.6C95.5,24,95.4,24,95.2,24c-0.2,0-0.4-0.1-0.4-0.3c0-0.1,0-0.2,0.1-0.2l1.3-2.3h-1.3
		c-0.2,0-0.3-0.1-0.3-0.3s0.2-0.3,0.3-0.3h1.9C97,20.5,97.1,20.6,97.1,20.8z M85,13h6.6l-0.3-0.3c-0.4-0.4-0.4-1,0-1.4s1-0.4,1.4,0
		l2,2c0.4,0.4,0.4,1,0,1.4l-2,2C92.5,16.9,92.3,17,92,17s-0.5-0.1-0.7-0.3c-0.4-0.4-0.4-1,0-1.4l0.3-0.3H85c-0.6,0-1-0.4-1-1
		S84.4,13,85,13z M60,40h29c1.7,0,3,1.3,3,3c0,1.7-1.3,3-3,3H60c-1.7,0-3-1.3-3-3C57,41.3,58.3,40,60,40z M43,39c-1.7,0-3-1.3-3-3
		s1.3-3,3-3h29c1.7,0,3,1.3,3,3s-1.3,3-3,3H43z M81.5,22.3c0-1.1,0.5-1.9,1.5-1.9c0.3,0,0.6,0.1,0.8,0.2c0.1,0.1,0.2,0.2,0.2,0.3
		c0,0.2-0.2,0.4-0.4,0.4c-0.1,0-0.1,0-0.2-0.1c-0.2-0.1-0.3-0.1-0.5-0.1c-0.4,0-0.7,0.4-0.7,0.8c0.2-0.1,0.4-0.2,0.7-0.2
		c0.7,0,1.2,0.4,1.2,1.1v0c0,0.7-0.6,1.2-1.3,1.2c-0.5,0-0.8-0.1-1-0.4C81.7,23.4,81.5,23.1,81.5,22.3L81.5,22.3z M74.8,11.9
		c0.4,0,0.6,0.2,0.7,0.5l1.1,3l1.1-2.9c0.1-0.3,0.3-0.5,0.7-0.5c0.4,0,0.7,0.3,0.7,0.7c0,0.1,0,0.3-0.1,0.3l-1.8,4.3
		c-0.4,1-0.9,1.4-1.7,1.4c-0.3,0-0.5,0-0.8-0.1c-0.2-0.1-0.5-0.2-0.5-0.6s0.3-0.6,0.6-0.6c0.1,0,0.2,0,0.2,0c0.1,0,0.2,0.1,0.3,0.1
		c0.3,0,0.4,0,0.5-0.3l0-0.1l-1.7-4c0-0.1-0.1-0.2-0.1-0.3C74,12.1,74.4,11.9,74.8,11.9z M68.6,15.5c0-1.1,0.8-1.6,2-1.6
		c0.5,0,0.9,0.1,1.2,0.2V14c0-0.6-0.4-0.9-1.1-0.9c-0.4,0-0.7,0.1-1,0.1c-0.1,0-0.1,0-0.2,0c-0.3,0-0.6-0.3-0.6-0.6
		c0-0.3,0.2-0.5,0.4-0.6c0.5-0.2,0.9-0.3,1.6-0.3c0.8,0,1.4,0.2,1.7,0.6c0.4,0.4,0.6,0.9,0.6,1.6v2.3c0,0.4-0.3,0.7-0.7,0.7
		c-0.4,0-0.7-0.3-0.7-0.6v0c-0.3,0.4-0.8,0.6-1.5,0.6C69.4,17.1,68.6,16.5,68.6,15.5L68.6,15.5z M70,22.4c-0.3,0-0.4,0.1-0.5,0.1
		c-0.1,0-0.2,0-0.4-0.2C69,22.2,68.9,22.1,69,22l0.1-1.2c0-0.2,0.2-0.3,0.3-0.3h1.5c0.2,0,0.3,0.2,0.3,0.3s-0.2,0.3-0.3,0.3h-1.2
		l0,0.6c0.1,0,0.3-0.1,0.5-0.1c0.7,0,1.2,0.3,1.2,1.1v0c0,0.7-0.5,1.2-1.3,1.2c-0.5,0-0.8-0.1-1.1-0.3c-0.1-0.1-0.2-0.2-0.2-0.3
		c0-0.2,0.2-0.4,0.4-0.4c0.1,0,0.1,0,0.2,0.1c0.2,0.2,0.4,0.2,0.7,0.2c0.3,0,0.6-0.2,0.6-0.5v0C70.6,22.6,70.3,22.4,70,22.4z
		 M60.8,11.1c0-0.4,0.3-0.7,0.7-0.7h0.2c0.3,0,0.5,0.2,0.7,0.4l1.8,2.9l1.8-2.9c0.2-0.2,0.4-0.4,0.7-0.4h0.2c0.4,0,0.7,0.3,0.7,0.7
		v5.3c0,0.4-0.3,0.7-0.7,0.7c-0.4,0-0.7-0.3-0.7-0.7V13l-1.3,2c-0.2,0.2-0.3,0.4-0.6,0.4c-0.3,0-0.5-0.1-0.6-0.4L62.2,13v3.3
		c0,0.4-0.3,0.7-0.7,0.7s-0.7-0.3-0.7-0.7V11.1z M55.9,22.5l1.5-1.8c0.1-0.2,0.3-0.3,0.5-0.3c0.2,0,0.4,0.2,0.4,0.4v1.8h0.2
		c0.2,0,0.3,0.1,0.3,0.3c0,0.2-0.1,0.3-0.3,0.3h-0.2v0.4c0,0.2-0.2,0.4-0.4,0.4c-0.2,0-0.4-0.2-0.4-0.4v-0.4h-1.4
		c-0.2,0-0.4-0.2-0.4-0.4C55.7,22.7,55.7,22.6,55.9,22.5z M44.3,13.3l2-2c0.4-0.4,1-0.4,1.4,0s0.4,1,0,1.4L47.4,13H54
		c0.6,0,1,0.4,1,1s-0.4,1-1,1h-6.6l0.3,0.3c0.4,0.4,0.4,1,0,1.4C47.5,16.9,47.3,17,47,17s-0.5-0.1-0.7-0.3l-2-2
		C43.9,14.3,43.9,13.7,44.3,13.3z M44.2,22.5h-0.1c-0.2,0-0.3-0.2-0.3-0.3c0-0.1,0-0.2,0.2-0.3l0.7-0.7h-1.1c-0.2,0-0.3-0.2-0.3-0.3
		c0-0.2,0.2-0.3,0.3-0.3h1.7c0.2,0,0.4,0.1,0.4,0.3c0,0.2-0.1,0.3-0.2,0.4l-0.7,0.7c0.5,0.1,0.9,0.3,0.9,1v0c0,0.7-0.5,1.1-1.3,1.1
		c-0.5,0-0.9-0.2-1.2-0.4c-0.1-0.1-0.1-0.2-0.1-0.3c0-0.2,0.2-0.4,0.4-0.4c0.1,0,0.2,0,0.2,0.1c0.2,0.2,0.4,0.3,0.7,0.3
		c0.3,0,0.5-0.2,0.5-0.4v0C44.9,22.6,44.6,22.5,44.2,22.5z M31.5,21.1c-0.2,0-0.4,0.1-0.6,0.3c-0.1,0.1-0.1,0.1-0.3,0.1
		c-0.2,0-0.4-0.2-0.4-0.4c0-0.1,0-0.2,0.1-0.2c0.3-0.3,0.6-0.5,1.1-0.5c0.7,0,1.2,0.4,1.2,1.1v0c0,0.6-0.3,0.9-0.9,1.4l-0.6,0.4h1.2
		c0.2,0,0.3,0.1,0.3,0.3c0,0.2-0.1,0.3-0.3,0.3h-1.9c-0.2,0-0.4-0.1-0.4-0.4c0-0.1,0.1-0.3,0.2-0.4l1-0.8c0.4-0.4,0.6-0.6,0.6-0.8
		C32,21.3,31.8,21.1,31.5,21.1z M33,26h47c1.7,0,3,1.3,3,3s-1.3,3-3,3H33c-1.7,0-3-1.3-3-3S31.3,26,33,26z M30,50c0-1.7,1.3-3,3-3
		h71c1.7,0,3,1.3,3,3s-1.3,3-3,3H33C31.3,53,30,51.7,30,50z M86,67H49c-1.7,0-3-1.3-3-3s1.3-3,3-3h37c1.7,0,3,1.3,3,3S87.7,67,86,67
		z M107,60H78c-1.7,0-3-1.3-3-3s1.3-3,3-3h29c1.7,0,3,1.3,3,3S108.7,60,107,60z"/>
	<path fill="#FFFFFF" d="M86,63H49c-0.6,0-1,0.4-1,1s0.4,1,1,1h37c0.6,0,1-0.4,1-1S86.6,63,86,63z"/>
	<path fill="#FFFFFF" d="M107,56H78c-0.6,0-1,0.4-1,1s0.4,1,1,1h29c0.6,0,1-0.4,1-1S107.6,56,107,56z"/>
	<path fill="#FFFFFF" d="M62,78h-1c0,0.6,0.4,1,1,1h14c0.6,0,1-0.4,1-1h-1H62z"/>
	<path fill="#FFFFFF" d="M119,76h2V2H19v74h1h41h1h14h1H119z M24,73h-2v-2V7V5h2h92h2v2v64v2h-2H24z"/>
	<path fill="#ED6848" d="M118,73v-2V7V5h-2H24h-2v2v64v2h2h92H118z M24,7h92v64H24V7z"/>
	<path fill="#ED6848" d="M33,32h47c1.7,0,3-1.3,3-3s-1.3-3-3-3H33c-1.7,0-3,1.3-3,3S31.3,32,33,32z M33,28h47c0.6,0,1,0.4,1,1
		s-0.4,1-1,1H33c-0.6,0-1-0.4-1-1S32.4,28,33,28z"/>
	<path fill="#ED6848" d="M107,50c0-1.7-1.3-3-3-3H33c-1.7,0-3,1.3-3,3s1.3,3,3,3h71C105.7,53,107,51.7,107,50z M32,50
		c0-0.6,0.4-1,1-1h71c0.6,0,1,0.4,1,1s-0.4,1-1,1H33C32.4,51,32,50.6,32,50z"/>
	<path fill="#ED6848" d="M75,36c0-1.7-1.3-3-3-3H43c-1.7,0-3,1.3-3,3s1.3,3,3,3h29C73.7,39,75,37.7,75,36z M42,36c0-0.6,0.4-1,1-1
		h29c0.6,0,1,0.4,1,1s-0.4,1-1,1H43C42.4,37,42,36.6,42,36z"/>
	<path fill="#ED6848" d="M60,46h29c1.7,0,3-1.3,3-3c0-1.7-1.3-3-3-3H60c-1.7,0-3,1.3-3,3C57,44.7,58.3,46,60,46z M60,42h29
		c0.6,0,1,0.4,1,1s-0.4,1-1,1H60c-0.6,0-1-0.4-1-1S59.4,42,60,42z"/>
	<path fill="#ED6848" d="M107,54H78c-1.7,0-3,1.3-3,3s1.3,3,3,3h29c1.7,0,3-1.3,3-3S108.7,54,107,54z M107,58H78c-0.6,0-1-0.4-1-1
		s0.4-1,1-1h29c0.6,0,1,0.4,1,1S107.6,58,107,58z"/>
	<path fill="#ED6848" d="M86,61H49c-1.7,0-3,1.3-3,3s1.3,3,3,3h37c1.7,0,3-1.3,3-3S87.7,61,86,61z M86,65H49c-0.6,0-1-0.4-1-1
		s0.4-1,1-1h37c0.6,0,1,0.4,1,1S86.6,65,86,65z"/>
	<path fill="#ED6848" d="M61.5,17.1c0.4,0,0.7-0.3,0.7-0.7V13l1.3,1.9c0.2,0.2,0.3,0.4,0.6,0.4c0.3,0,0.5-0.1,0.6-0.4l1.3-2v3.3
		c0,0.4,0.3,0.7,0.7,0.7c0.4,0,0.7-0.3,0.7-0.7v-5.3c0-0.4-0.3-0.7-0.7-0.7h-0.2c-0.3,0-0.5,0.1-0.7,0.4l-1.8,2.9l-1.8-2.9
		c-0.1-0.2-0.4-0.4-0.7-0.4h-0.2c-0.4,0-0.7,0.3-0.7,0.7v5.3C60.8,16.7,61.1,17.1,61.5,17.1z"/>
	<path fill="#ED6848" d="M70.3,17.1c0.7,0,1.2-0.3,1.5-0.6v0c0,0.3,0.3,0.6,0.7,0.6c0.4,0,0.7-0.3,0.7-0.7v-2.3
		c0-0.7-0.2-1.2-0.6-1.6c-0.4-0.4-0.9-0.6-1.7-0.6c-0.7,0-1.2,0.1-1.6,0.3c-0.2,0.1-0.4,0.3-0.4,0.6c0,0.3,0.3,0.6,0.6,0.6
		c0.1,0,0.1,0,0.2,0c0.3-0.1,0.6-0.1,1-0.1c0.7,0,1.1,0.3,1.1,0.9v0.1c-0.4-0.1-0.7-0.2-1.2-0.2c-1.2,0-2,0.5-2,1.6v0
		C68.6,16.5,69.4,17.1,70.3,17.1z M70,15.5c0-0.5,0.4-0.7,1-0.7c0.4,0,0.7,0.1,0.9,0.2v0.3c0,0.5-0.5,0.9-1.1,0.9
		C70.3,16.1,70,15.9,70,15.5L70,15.5z"/>
	<path fill="#ED6848" d="M75.9,16.9l0,0.1c-0.1,0.3-0.3,0.3-0.5,0.3c-0.1,0-0.2,0-0.3-0.1c-0.1,0-0.1,0-0.2,0
		c-0.3,0-0.6,0.2-0.6,0.6s0.2,0.5,0.5,0.6c0.2,0.1,0.5,0.1,0.8,0.1c0.9,0,1.3-0.4,1.7-1.4l1.8-4.3c0-0.1,0.1-0.2,0.1-0.3
		c0-0.4-0.3-0.7-0.7-0.7c-0.4,0-0.6,0.2-0.7,0.5l-1.1,2.9l-1.1-3c-0.1-0.3-0.3-0.5-0.7-0.5c-0.4,0-0.7,0.3-0.7,0.7
		c0,0.1,0,0.2,0.1,0.3L75.9,16.9z"/>
	<path fill="#ED6848" d="M31.4,22.4l-1,0.8c-0.1,0.1-0.2,0.2-0.2,0.4c0,0.2,0.2,0.4,0.4,0.4h1.9c0.2,0,0.3-0.1,0.3-0.3
		c0-0.2-0.2-0.3-0.3-0.3h-1.2l0.6-0.4c0.6-0.5,0.9-0.8,0.9-1.4v0c0-0.7-0.5-1.1-1.2-1.1c-0.5,0-0.9,0.2-1.1,0.5
		c-0.1,0.1-0.1,0.2-0.1,0.2c0,0.2,0.2,0.4,0.4,0.4c0.1,0,0.2-0.1,0.3-0.1c0.2-0.2,0.4-0.3,0.6-0.3c0.3,0,0.5,0.2,0.5,0.5
		C32,21.9,31.8,22.1,31.4,22.4z"/>
	<path fill="#ED6848" d="M44.4,23.4c-0.3,0-0.5-0.1-0.7-0.3c-0.1,0-0.1-0.1-0.2-0.1c-0.2,0-0.4,0.2-0.4,0.4c0,0.1,0.1,0.2,0.1,0.3
		c0.3,0.2,0.7,0.4,1.2,0.4c0.8,0,1.3-0.5,1.3-1.1v0c0-0.6-0.5-0.9-0.9-1l0.7-0.7c0.1-0.1,0.2-0.2,0.2-0.4c0-0.2-0.2-0.3-0.4-0.3
		h-1.7c-0.2,0-0.3,0.1-0.3,0.3c0,0.2,0.1,0.3,0.3,0.3h1.1l-0.7,0.7c-0.1,0.1-0.2,0.2-0.2,0.3c0,0.2,0.1,0.3,0.3,0.3h0.1
		c0.4,0,0.7,0.2,0.7,0.4v0C44.9,23.2,44.7,23.4,44.4,23.4z"/>
	<path fill="#ED6848" d="M56.1,23.2h1.4v0.4c0,0.2,0.2,0.4,0.4,0.4c0.2,0,0.4-0.2,0.4-0.4v-0.4h0.2c0.2,0,0.3-0.1,0.3-0.3
		c0-0.2-0.1-0.3-0.3-0.3h-0.2v-1.8c0-0.2-0.2-0.4-0.4-0.4c-0.2,0-0.3,0.1-0.5,0.3l-1.5,1.8c-0.1,0.1-0.2,0.3-0.2,0.4
		C55.7,23.1,55.9,23.2,56.1,23.2z M57.5,21.5v1.1h-0.9L57.5,21.5z"/>
	<path fill="#ED6848" d="M70,23.4c-0.2,0-0.5-0.1-0.7-0.2c-0.1,0-0.1-0.1-0.2-0.1c-0.2,0-0.4,0.2-0.4,0.4c0,0.1,0.1,0.2,0.2,0.3
		c0.3,0.2,0.6,0.3,1.1,0.3c0.8,0,1.3-0.5,1.3-1.2v0c0-0.8-0.5-1.1-1.2-1.1c-0.2,0-0.3,0-0.5,0.1l0-0.6h1.2c0.2,0,0.3-0.1,0.3-0.3
		s-0.2-0.3-0.3-0.3h-1.5c-0.2,0-0.3,0.1-0.3,0.3L69,22c0,0.1,0,0.2,0.1,0.3c0.2,0.1,0.2,0.2,0.4,0.2c0.1,0,0.2-0.1,0.5-0.1
		c0.4,0,0.6,0.2,0.6,0.5v0C70.6,23.2,70.4,23.4,70,23.4z"/>
	<path fill="#ED6848" d="M82.9,24.1c0.8,0,1.3-0.5,1.3-1.2v0c0-0.7-0.5-1.1-1.2-1.1c-0.3,0-0.6,0.1-0.7,0.2c0-0.5,0.3-0.8,0.7-0.8
		c0.2,0,0.4,0,0.5,0.1c0.1,0,0.1,0.1,0.2,0.1c0.2,0,0.4-0.2,0.4-0.4c0-0.2-0.1-0.3-0.2-0.3c-0.2-0.1-0.5-0.2-0.8-0.2
		c-1,0-1.5,0.8-1.5,1.9v0c0,0.7,0.2,1.1,0.4,1.3C82.2,23.9,82.5,24.1,82.9,24.1z M82.3,22.9c0-0.3,0.2-0.5,0.6-0.5
		c0.4,0,0.6,0.2,0.6,0.5v0c0,0.3-0.2,0.5-0.6,0.5S82.3,23.2,82.3,22.9L82.3,22.9z"/>
	<path fill="#ED6848" d="M94.5,20.8c0,0.2,0.2,0.3,0.3,0.3h1.3l-1.3,2.3c0,0.1-0.1,0.2-0.1,0.2c0,0.2,0.2,0.3,0.4,0.3
		c0.2,0,0.3-0.1,0.4-0.3l1.4-2.6c0.1-0.1,0.1-0.3,0.1-0.4c0-0.2-0.1-0.3-0.4-0.3h-1.9C94.7,20.5,94.5,20.6,94.5,20.8z"/>
	<path fill="#ED6848" d="M108.6,24c0.8,0,1.4-0.4,1.4-1v0c0-0.4-0.2-0.6-0.6-0.8c0.3-0.2,0.4-0.4,0.4-0.8v0c0-0.5-0.5-1-1.2-1
		c-0.7,0-1.2,0.4-1.2,1v0c0,0.4,0.2,0.6,0.4,0.8c-0.4,0.2-0.6,0.4-0.6,0.8v0C107.2,23.6,107.8,24,108.6,24z M108.1,21.5
		c0-0.2,0.2-0.4,0.5-0.4s0.5,0.2,0.5,0.4v0c0,0.2-0.2,0.4-0.5,0.4C108.3,21.9,108.1,21.7,108.1,21.5L108.1,21.5z M108,23
		c0-0.3,0.3-0.4,0.6-0.4c0.4,0,0.6,0.2,0.6,0.4v0c0,0.2-0.2,0.4-0.6,0.4C108.2,23.4,108,23.2,108,23L108,23z"/>
	<path fill="#ED6848" d="M85,15h6.6l-0.3,0.3c-0.4,0.4-0.4,1,0,1.4c0.2,0.2,0.5,0.3,0.7,0.3s0.5-0.1,0.7-0.3l2-2
		c0.4-0.4,0.4-1,0-1.4l-2-2c-0.4-0.4-1-0.4-1.4,0s-0.4,1,0,1.4l0.3,0.3H85c-0.6,0-1,0.4-1,1S84.4,15,85,15z"/>
	<path fill="#ED6848" d="M46.3,16.7c0.2,0.2,0.5,0.3,0.7,0.3s0.5-0.1,0.7-0.3c0.4-0.4,0.4-1,0-1.4L47.4,15H54c0.6,0,1-0.4,1-1
		s-0.4-1-1-1h-6.6l0.3-0.3c0.4-0.4,0.4-1,0-1.4s-1-0.4-1.4,0l-2,2c-0.4,0.4-0.4,1,0,1.4L46.3,16.7z"/>
	<path fill="#ED6848" d="M139,76h-16V2c0-1.1-1-2-2.1-2h-0.1h-102C17.8,0,17,0.9,17,2v74H1c-0.6,0-1,0.4-1,1v5c0,2.2,1.7,4,3.9,4
		h132c2.2,0,4.1-1.8,4.1-4v-5C140,76.4,139.6,76,139,76z M138,82c0,1.1-1,2-2.1,2H3.9C2.8,84,2,83.1,2,82v-4h16.9H20h39
		c0,1.7,1.3,3,3,3h14c1.7,0,3-1.3,3-3h40h1.9H138V82z M76,76H62h-1H20h-1V2h102v74h-2H77H76z M77,78c0,0.6-0.4,1-1,1H62
		c-0.6,0-1-0.4-1-1h1h14H77z"/>
</g>
</svg>
