<?xml version="1.0" encoding="utf-8"?>
<!-- Generator: Adobe Illustrator 16.0.4, SVG Export Plug-In . SVG Version: 6.00 Build 0)  -->
<!DOCTYPE svg PUBLIC "-//W3C//DTD SVG 1.1//EN" "http://www.w3.org/Graphics/SVG/1.1/DTD/svg11.dtd">
<svg version="1.1" id="Layer_1" xmlns="http://www.w3.org/2000/svg" xmlns:xlink="http://www.w3.org/1999/xlink" x="0px" y="0px"
	 width="140px" height="86px" viewBox="0 0 140 86" enable-background="new 0 0 140 86" xml:space="preserve">
<g>
	<path fill="#ED6848" d="M116,73h2v-2V7V5h-2H24h-2v2v64v2h2H116z M24,7h92v64H24V7z"/>
	<path fill="#ED6848" d="M33,32h47c1.654,0,3-1.346,3-3s-1.346-3-3-3H33c-1.654,0-3,1.346-3,3S31.346,32,33,32z M33,28h47
		c0.553,0,1,0.448,1,1s-0.447,1-1,1H33c-0.552,0-1-0.448-1-1S32.448,28,33,28z"/>
	<path fill="#ED6848" d="M107,50c0-1.654-1.346-3-3-3H33c-1.654,0-3,1.346-3,3s1.346,3,3,3h71C105.654,53,107,51.654,107,50z M32,50
		c0-0.553,0.448-1,1-1h71c0.553,0,1,0.447,1,1s-0.447,1-1,1H33C32.448,51,32,50.553,32,50z"/>
	<path fill="#ED6848" d="M75,36c0-1.654-1.346-3-3-3H43c-1.654,0-3,1.346-3,3s1.346,3,3,3h29C73.654,39,75,37.654,75,36z M42,36
		c0-0.552,0.448-1,1-1h29c0.553,0,1,0.448,1,1s-0.447,1-1,1H43C42.448,37,42,36.552,42,36z"/>
	<path fill="#ED6848" d="M60,46h29c1.654,0,3-1.346,3-3s-1.346-3-3-3H60c-1.654,0-3,1.346-3,3S58.346,46,60,46z M60,42h29
		c0.553,0,1,0.448,1,1s-0.447,1-1,1H60c-0.552,0-1-0.448-1-1S59.448,42,60,42z"/>
	<path fill="#ED6848" d="M107,54H78c-1.654,0-3,1.346-3,3s1.346,3,3,3h29c1.654,0,3-1.346,3-3S108.654,54,107,54z M107,58H78
		c-0.553,0-1-0.447-1-1s0.447-1,1-1h29c0.553,0,1,0.447,1,1S107.553,58,107,58z"/>
	<path fill="#ED6848" d="M86,61H49c-1.654,0-3,1.346-3,3s1.346,3,3,3h37c1.654,0,3-1.346,3-3S87.654,61,86,61z M86,65H49
		c-0.552,0-1-0.447-1-1s0.448-1,1-1h37c0.553,0,1,0.447,1,1S86.553,65,86,65z"/>
	<path fill="#ED6848" d="M61.507,17.057c0.398,0,0.72-0.312,0.72-0.71v-3.297l1.261,1.942c0.151,0.228,0.341,0.37,0.606,0.37
		c0.265,0,0.455-0.142,0.606-0.37l1.279-1.971v3.307c0,0.398,0.322,0.729,0.72,0.729c0.408,0,0.729-0.322,0.729-0.729v-5.269
		c0-0.407-0.322-0.729-0.729-0.729h-0.161c-0.293,0-0.502,0.123-0.654,0.37l-1.772,2.88l-1.762-2.871
		c-0.133-0.218-0.351-0.379-0.664-0.379h-0.161c-0.407,0-0.729,0.322-0.729,0.729v5.288C60.796,16.744,61.109,17.057,61.507,17.057z
		"/>
	<path fill="#ED6848" d="M70.308,17.095c0.701,0,1.185-0.256,1.535-0.645v0.01c0,0.303,0.274,0.597,0.692,0.597
		c0.388,0,0.701-0.303,0.701-0.691v-2.312c0-0.683-0.171-1.242-0.551-1.621c-0.359-0.36-0.928-0.568-1.714-0.568
		c-0.673,0-1.166,0.095-1.621,0.265c-0.227,0.085-0.388,0.303-0.388,0.559c0,0.332,0.265,0.587,0.597,0.587
		c0.066,0,0.124-0.009,0.208-0.038c0.275-0.085,0.597-0.142,0.995-0.142c0.72,0,1.09,0.332,1.09,0.928v0.085
		c-0.36-0.123-0.729-0.208-1.242-0.208c-1.203,0-2.046,0.512-2.046,1.621v0.019C68.564,16.545,69.351,17.095,70.308,17.095z
		 M69.957,15.465c0-0.455,0.379-0.701,0.995-0.701c0.351,0,0.673,0.076,0.919,0.189v0.256c0,0.521-0.455,0.891-1.127,0.891
		c-0.464,0-0.787-0.227-0.787-0.616V15.465z"/>
	<path fill="#ED6848" d="M75.859,16.905l-0.048,0.114c-0.133,0.256-0.256,0.303-0.512,0.303c-0.104,0-0.181-0.019-0.304-0.057
		c-0.057-0.019-0.123-0.038-0.236-0.038c-0.294,0-0.568,0.237-0.568,0.587s0.246,0.521,0.455,0.597
		c0.236,0.085,0.464,0.132,0.786,0.132c0.862,0,1.288-0.388,1.715-1.421l1.772-4.254c0.027-0.066,0.066-0.228,0.066-0.341
		c0-0.379-0.312-0.663-0.683-0.663s-0.578,0.246-0.692,0.549l-1.061,2.947l-1.1-2.957c-0.123-0.341-0.332-0.54-0.691-0.54
		c-0.398,0-0.711,0.284-0.711,0.691c0,0.095,0.038,0.237,0.076,0.332L75.859,16.905z"/>
	<path fill="#ED6848" d="M31.411,22.434l-0.996,0.816c-0.13,0.105-0.2,0.235-0.2,0.385c0,0.23,0.175,0.365,0.416,0.365h1.901
		c0.186,0,0.335-0.145,0.335-0.331c0-0.185-0.15-0.335-0.335-0.335h-1.221l0.57-0.44c0.621-0.48,0.921-0.771,0.921-1.356v-0.01
		c0-0.656-0.48-1.081-1.206-1.081c-0.531,0-0.861,0.19-1.141,0.515c-0.055,0.065-0.09,0.155-0.09,0.24
		c0,0.195,0.155,0.351,0.351,0.351c0.12,0,0.21-0.055,0.26-0.11c0.195-0.21,0.35-0.305,0.57-0.305c0.275,0,0.471,0.16,0.471,0.456
		C32.017,21.883,31.847,22.078,31.411,22.434z"/>
	<path fill="#ED6848" d="M44.408,23.37c-0.275,0-0.485-0.09-0.686-0.261c-0.06-0.05-0.135-0.095-0.245-0.095
		c-0.2,0-0.371,0.17-0.371,0.37c0,0.11,0.06,0.215,0.13,0.275c0.285,0.245,0.661,0.4,1.161,0.4c0.781,0,1.261-0.485,1.261-1.146
		v-0.01c0-0.65-0.465-0.901-0.941-0.981l0.686-0.656c0.14-0.135,0.23-0.24,0.23-0.43c0-0.21-0.166-0.34-0.391-0.34h-1.707
		c-0.18,0-0.331,0.15-0.331,0.33c0,0.181,0.15,0.331,0.331,0.331h1.076l-0.681,0.686c-0.12,0.12-0.165,0.21-0.165,0.315
		c0,0.18,0.15,0.331,0.331,0.331h0.12c0.43,0,0.686,0.16,0.686,0.445v0.01C44.903,23.204,44.698,23.37,44.408,23.37z"/>
	<path fill="#ED6848" d="M56.058,23.244H57.5v0.42c0,0.205,0.16,0.365,0.365,0.365s0.37-0.16,0.37-0.365v-0.42h0.186
		c0.175,0,0.315-0.135,0.315-0.31c0-0.175-0.14-0.315-0.315-0.315h-0.186v-1.812c0-0.206-0.165-0.366-0.37-0.366
		c-0.226,0-0.335,0.09-0.48,0.26l-1.521,1.767c-0.115,0.135-0.18,0.261-0.18,0.421C55.683,23.094,55.853,23.244,56.058,23.244z
		 M57.5,21.528v1.091h-0.931L57.5,21.528z"/>
	<path fill="#ED6848" d="M70.028,23.359c-0.246,0-0.451-0.07-0.666-0.225c-0.061-0.045-0.12-0.07-0.21-0.07
		c-0.2,0-0.365,0.17-0.365,0.371c0,0.13,0.065,0.23,0.155,0.295c0.28,0.2,0.616,0.33,1.102,0.33c0.771,0,1.307-0.471,1.307-1.211
		v-0.01c0-0.791-0.536-1.121-1.227-1.121c-0.195,0-0.32,0.025-0.461,0.06l0.04-0.605h1.182c0.185,0,0.34-0.15,0.34-0.335
		s-0.155-0.34-0.34-0.34h-1.521c-0.186,0-0.331,0.145-0.341,0.33l-0.07,1.187c-0.01,0.13,0.035,0.235,0.14,0.31
		c0.155,0.11,0.24,0.155,0.351,0.155c0.105,0,0.235-0.09,0.53-0.09c0.365,0,0.621,0.175,0.621,0.476v0.01
		C70.593,23.184,70.353,23.359,70.028,23.359z"/>
	<path fill="#ED6848" d="M82.944,24.06c0.761,0,1.337-0.496,1.337-1.211v-0.01c0-0.731-0.536-1.116-1.232-1.116
		c-0.345,0-0.551,0.11-0.725,0.225c0.049-0.46,0.27-0.811,0.705-0.811c0.211,0,0.355,0.05,0.516,0.14
		c0.055,0.03,0.125,0.055,0.189,0.055c0.201,0,0.365-0.155,0.365-0.355c0-0.155-0.08-0.26-0.199-0.33
		c-0.211-0.125-0.496-0.21-0.846-0.21c-1.047,0-1.537,0.831-1.537,1.912v0.01c0,0.696,0.16,1.071,0.416,1.326
		C82.178,23.93,82.488,24.06,82.944,24.06z M82.304,22.869c0-0.295,0.22-0.505,0.601-0.505s0.61,0.215,0.61,0.511v0.01
		c0,0.3-0.22,0.516-0.601,0.516s-0.61-0.225-0.61-0.521V22.869z"/>
	<path fill="#ED6848" d="M94.502,20.832c0,0.185,0.15,0.33,0.335,0.33h1.341l-1.301,2.282c-0.04,0.07-0.07,0.175-0.07,0.24
		c0,0.22,0.19,0.345,0.396,0.345c0.15,0,0.271-0.075,0.37-0.26l1.406-2.553c0.065-0.12,0.111-0.26,0.111-0.375
		c0-0.22-0.136-0.345-0.352-0.345h-1.901C94.652,20.497,94.502,20.647,94.502,20.832z"/>
	<path fill="#ED6848" d="M108.576,24.05c0.776,0,1.352-0.381,1.352-1.031v-0.01c0-0.416-0.21-0.641-0.565-0.826
		c0.271-0.165,0.445-0.39,0.445-0.766v-0.01c0-0.541-0.49-0.961-1.231-0.961c-0.74,0-1.23,0.425-1.23,0.961v0.01
		c0,0.375,0.175,0.601,0.445,0.766c-0.371,0.17-0.566,0.42-0.566,0.846v0.01C107.225,23.65,107.801,24.05,108.576,24.05z
		 M108.076,21.488c0-0.215,0.186-0.406,0.5-0.406c0.315,0,0.501,0.195,0.501,0.411v0.01c0,0.245-0.195,0.426-0.501,0.426
		c-0.305,0-0.5-0.186-0.5-0.431V21.488z M107.971,22.969c0-0.271,0.256-0.431,0.605-0.431c0.351,0,0.605,0.16,0.605,0.431v0.01
		c0,0.245-0.225,0.436-0.605,0.436c-0.38,0-0.605-0.195-0.605-0.436V22.969z"/>
	<path fill="#ED6848" d="M85,15h6.586l-0.293,0.293c-0.391,0.391-0.391,1.023,0,1.414C91.488,16.902,91.744,17,92,17
		s0.512-0.098,0.707-0.293l2-2c0.391-0.391,0.391-1.023,0-1.414l-2-2c-0.391-0.391-1.023-0.391-1.414,0s-0.391,1.023,0,1.414
		L91.586,13H85c-0.553,0-1,0.448-1,1S84.447,15,85,15z"/>
	<path fill="#ED6848" d="M46.293,16.707C46.488,16.902,46.744,17,47,17s0.512-0.098,0.707-0.293c0.391-0.391,0.391-1.023,0-1.414
		L47.414,15H54c0.552,0,1-0.448,1-1s-0.448-1-1-1h-6.586l0.293-0.293c0.391-0.391,0.391-1.023,0-1.414s-1.023-0.391-1.414,0l-2,2
		c-0.391,0.391-0.391,1.023,0,1.414L46.293,16.707z"/>
	<path fill="#ED6848" d="M139,76h-16V2c0-1.104-0.958-2-2.062-2h-0.062h-102C17.771,0,17,0.896,17,2v74H1c-0.552,0-1,0.447-1,1v5
		c0,2.243,1.702,4,3.875,4h132c2.236,0,4.125-1.832,4.125-4v-5C140,76.447,139.553,76,139,76z M19,2h102v74h-2H77h-1H62h-1H20h-1V2z
		 M77,78c0,0.553-0.447,1-1,1H62c-0.552,0-1-0.447-1-1h1h14H77z M138,82c0,1.065-0.993,2-2.125,2h-132C2.806,84,2,83.141,2,82v-4
		h16.875H20h39c0,1.654,1.346,3,3,3h14c1.654,0,3-1.346,3-3h40h1.875H138V82z"/>
</g>
</svg>
