<?xml version="1.0" encoding="utf-8"?>
<!-- Generator: Adobe Illustrator 16.0.4, SVG Export Plug-In . SVG Version: 6.00 Build 0)  -->
<!DOCTYPE svg PUBLIC "-//W3C//DTD SVG 1.1//EN" "http://www.w3.org/Graphics/SVG/1.1/DTD/svg11.dtd">
<svg version="1.1" id="Layer_1" xmlns="http://www.w3.org/2000/svg" xmlns:xlink="http://www.w3.org/1999/xlink" x="0px" y="0px"
	 width="82px" height="124px" viewBox="0 0 82 124" enable-background="new 0 0 82 124" xml:space="preserve">
<rect x="1.173" y="0.846" fill="#FFFFFF" stroke="#010202" stroke-miterlimit="10" width="79.359" height="121.701"/>
<g>
	<path fill="#ED6848" d="M80,0H2C0.896,0,0,0.896,0,2v120c0,1.104,0.896,2,2,2h78c1.104,0,2-0.896,2-2V2C82,0.896,81.104,0,80,0z
		 M80,122H2V2h78V122z"/>
	<path fill="#ED6848" d="M16,39h21c1.104,0,2-0.896,2-2V16c0-1.104-0.896-2-2-2H16c-1.104,0-2,0.896-2,2v7.5v6V37
		C14,38.104,14.896,39,16,39z M16,31.949C16.162,31.982,16.329,32,16.5,32H21v4.5c0,0.171,0.018,0.338,0.051,0.5H16V31.949z M16,26
		v-2.5c0-0.276,0.224-0.5,0.5-0.5s0.5,0.224,0.5,0.5V26v1v2h5l0,0c0,0,0,0,0,0c0.448,0,0.856-0.303,0.97-0.757
		c0,0,1.072-4.147,1.148-4.326C24.346,23.378,24.879,23,25.5,23c0.828,0,1.5,0.672,1.5,1.5c0,0.198-0.096,0.448-0.225,0.701
		l-0.704,1.084C26.03,26.337,26,26.375,26,26.375v0.019L23.656,30H23h-2h-4h-0.5c-0.276,0-0.5-0.224-0.5-0.5V29v-1v-0.949V26z
		 M19,24h2.969l-0.75,3H19V24z M26,19.5c0-0.829,0.671-1.5,1.5-1.5s1.5,0.671,1.5,1.5S28.329,21,27.5,21S26,20.329,26,19.5z
		 M23,36.5V32h1v4.5c0,0.276-0.224,0.5-0.5,0.5S23,36.776,23,36.5z M27.5,16H37v21H25.949C25.982,36.838,26,36.671,26,36.5v-6.367
		l2.191-3.418c0.172-0.207,0.315-0.437,0.436-0.68l0.315-0.492l7.639-5.729c0.45-0.321,0.554-0.946,0.233-1.395
		c-0.321-0.45-0.947-0.554-1.395-0.233l-6.677,5.008c-0.053-0.13-0.123-0.25-0.19-0.373C29.966,22.371,31,21.061,31,19.5
		C31,17.57,29.43,16,27.5,16S24,17.57,24,19.5c0,0.607,0.169,1.171,0.443,1.669c-0.527,0.17-0.998,0.461-1.382,0.843
		C23.04,22.011,23.021,22,23,22h-4.513c-0.457-0.604-1.174-1-1.987-1c-0.171,0-0.338,0.018-0.5,0.051V16H27.5z"/>
	<path fill="#ED6848" d="M16,109h21h36h2v-2V9V7h-2H9H7v2v98v2h2H16z M16,107v-1h21v1H16z M9,9h64v98H60c0.553,0,1-0.447,1-1
		s-0.447-1-1-1H42c-0.552,0-1,0.447-1,1s0.448,1,1,1h-3v-1.125c0-1.104-0.896-1.875-2-1.875H16c-1.104,0-2,0.771-2,1.875V107H9V9z"
		/>
	<path fill="#ED6848" d="M42,17h18c0.553,0,1-0.448,1-1s-0.447-1-1-1H42c-0.552,0-1,0.448-1,1S41.448,17,42,17z"/>
	<path fill="#ED6848" d="M42,22h25c0.553,0,1-0.448,1-1s-0.447-1-1-1H42c-0.552,0-1,0.448-1,1S41.448,22,42,22z"/>
	<path fill="#ED6848" d="M42,26h25c0.553,0,1-0.448,1-1s-0.447-1-1-1H42c-0.552,0-1,0.448-1,1S41.448,26,42,26z"/>
	<path fill="#ED6848" d="M42,30h21c0.553,0,1-0.448,1-1s-0.447-1-1-1H42c-0.552,0-1,0.448-1,1S41.448,30,42,30z"/>
	<path fill="#ED6848" d="M42,34h14c0.553,0,1-0.448,1-1s-0.447-1-1-1H42c-0.552,0-1,0.448-1,1S41.448,34,42,34z"/>
	<path fill="#ED6848" d="M42,64h14c0.553,0,1-0.447,1-1c0-0.552-0.447-1-1-1H42c-0.552,0-1,0.448-1,1C41,63.553,41.448,64,42,64z"/>
	<path fill="#ED6848" d="M42,94h14c0.553,0,1-0.447,1-1s-0.447-1-1-1H42c-0.552,0-1,0.447-1,1S41.448,94,42,94z"/>
	<path fill="#ED6848" d="M42,47h18c0.553,0,1-0.448,1-1s-0.447-1-1-1H42c-0.552,0-1,0.448-1,1S41.448,47,42,47z"/>
	<path fill="#ED6848" d="M42,52h25c0.553,0,1-0.448,1-1s-0.447-1-1-1H42c-0.552,0-1,0.448-1,1S41.448,52,42,52z"/>
	<path fill="#ED6848" d="M42,56h25c0.553,0,1-0.448,1-1s-0.447-1-1-1H42c-0.552,0-1,0.448-1,1S41.448,56,42,56z"/>
	<path fill="#ED6848" d="M42,60h21c0.553,0,1-0.448,1-1s-0.447-1-1-1H42c-0.552,0-1,0.448-1,1S41.448,60,42,60z"/>
	<path fill="#ED6848" d="M42,77h18c0.553,0,1-0.447,1-1s-0.447-1-1-1H42c-0.552,0-1,0.447-1,1S41.448,77,42,77z"/>
	<path fill="#ED6848" d="M42,82h25c0.553,0,1-0.447,1-1s-0.447-1-1-1H42c-0.552,0-1,0.447-1,1S41.448,82,42,82z"/>
	<path fill="#ED6848" d="M42,86h25c0.553,0,1-0.447,1-1s-0.447-1-1-1H42c-0.552,0-1,0.447-1,1S41.448,86,42,86z"/>
	<path fill="#ED6848" d="M42,90h21c0.553,0,1-0.447,1-1s-0.447-1-1-1H42c-0.552,0-1,0.447-1,1S41.448,90,42,90z"/>
	<path fill="#ED6848" d="M16,69h21c1.104,0,2-0.896,2-2V46c0-1.104-0.896-2-2-2H16c-1.104,0-2,0.896-2,2v21
		C14,68.104,14.896,69,16,69z M16,61.668c0.184,0.35,0.407,0.689,0.716,0.998c1.104,1.105,2.591,1.683,4.091,1.683
		c0.515,0,1.03-0.074,1.533-0.213c-0.059,0.954-0.044,1.911,0.038,2.863H16V61.668z M27.236,50.198
		c1.194-1.193,2.635-1.134,4.887-0.938c0.35,0.031,0.702,0.061,1.057,0.084c0.021,0.449,0.059,0.896,0.097,1.334
		c0.162,1.876,0.302,3.497-0.88,4.679c-1.494,1.494-3.72,1.944-5.66,1.238c1.049-1.611,2.43-3.027,3.97-4.005
		c0.466-0.296,0.604-0.914,0.308-1.38c-0.295-0.466-0.913-0.604-1.38-0.308c-1.496,0.95-2.832,2.221-3.932,3.68
		C25.538,52.998,26.066,51.369,27.236,50.198z M22.626,61.222c-0.678-0.893-1.423-1.74-2.245-2.503
		c-0.034-0.031-0.069-0.06-0.107-0.086l-0.094-0.066c-0.452-0.316-1.077-0.206-1.393,0.246c-0.316,0.453-0.207,1.076,0.246,1.393
		l0.037,0.026c0.69,0.645,1.315,1.359,1.892,2.107c-1.033,0.043-2.071-0.326-2.832-1.086c-0.884-0.884-0.749-2.327-0.618-3.722
		c0.009-0.097,0.018-0.192,0.026-0.287c0.259-0.016,0.516-0.038,0.77-0.06c1.564-0.134,2.567-0.163,3.311,0.581
		C22.537,58.682,22.888,59.996,22.626,61.222z M37,46v21H24.387c-0.255-2.65,0.098-5.358,1.045-7.868
		c0.097-0.256,0.21-0.509,0.325-0.76c0.904,0.374,1.859,0.562,2.812,0.562c1.919,0,3.823-0.742,5.241-2.161
		c1.84-1.84,1.638-4.191,1.459-6.265c-0.062-0.719-0.121-1.398-0.101-2.043c0.012-0.392-0.203-0.738-0.526-0.912
		c-0.154-0.102-0.337-0.163-0.535-0.167c-0.609-0.011-1.215-0.065-1.811-0.117c-2.243-0.196-4.562-0.398-6.475,1.516
		c-2.13,2.13-2.712,5.364-1.562,8.096c-0.114,0.223-0.225,0.447-0.328,0.674c-0.248-0.431-0.537-0.842-0.899-1.204
		c-1.456-1.456-3.365-1.292-4.896-1.159c-0.524,0.045-1.016,0.091-1.468,0.072c-0.254-0.006-0.486,0.087-0.669,0.239V46H37z"/>
	<path fill="#ED6848" d="M16,99h4h12h5c1.104,0,2-0.896,2-2V76c0-1.104-0.896-2-2-2H16c-1.104,0-2,0.896-2,2v21
		C14,98.104,14.896,99,16,99z M16,97v-8.5h2v2V97H16z M27,97h-1.934v-5.5H27V97z M29,97v-5.5c0-1.104-0.896-2-2-2h-1.934
		c-1.104,0-2,0.896-2,2V97H20v-8.5c0-0.996-0.729-1.814-1.682-1.968l7.662-8.544l7.748,8.539C32.753,86.661,32,87.488,32,88.5V97H29
		z M37,97h-3v-6.5v-2h1.96H36c0-0.002-0.001-0.004-0.001-0.006c0.38-0.016,0.721-0.24,0.875-0.59
		c0.16-0.361,0.093-0.783-0.174-1.076L26.876,76H37V97z M25.083,76L16,86.012V76H25.083z"/>
	<path fill="#ED6848" d="M40.5,111c-2.481,0-4.5,2.018-4.5,4.5c0,2.48,2.019,4.5,4.5,4.5s4.5-2.02,4.5-4.5
		C45,113.018,42.981,111,40.5,111z M40.5,118c-1.378,0-2.5-1.122-2.5-2.5c0-1.379,1.122-2.5,2.5-2.5s2.5,1.121,2.5,2.5
		C43,116.878,41.878,118,40.5,118z"/>
</g>
</svg>
