<?xml version="1.0" encoding="utf-8"?>
<!-- Generator: Adobe Illustrator 16.0.4, SVG Export Plug-In . SVG Version: 6.00 Build 0)  -->
<!DOCTYPE svg PUBLIC "-//W3C//DTD SVG 1.1//EN" "http://www.w3.org/Graphics/SVG/1.1/DTD/svg11.dtd">
<svg version="1.1" id="Layer_1" xmlns="http://www.w3.org/2000/svg" xmlns:xlink="http://www.w3.org/1999/xlink" x="0px" y="0px"
	 width="38px" height="38px" viewBox="0 0 38 38" enable-background="new 0 0 38 38" xml:space="preserve">
<circle fill-rule="evenodd" clip-rule="evenodd" fill="#32BFC1" cx="19" cy="19" r="19"/>
<g>
	<path fill="#FFFFFF" d="M11.067,15.535h3.792v12.18h-3.792V15.535z M12.964,9.48c1.212,0,2.195,0.983,2.195,2.193
		c0,1.212-0.983,2.196-2.195,2.196c-1.217,0-2.197-0.984-2.197-2.196C10.767,10.464,11.747,9.48,12.964,9.48"/>
	<path fill="#FFFFFF" d="M17.235,15.535h3.632v1.664h0.051c0.507-0.958,1.742-1.967,3.585-1.967c3.833,0,4.542,2.522,4.542,5.801
		v6.682H25.26v-5.923c0-1.413-0.027-3.229-1.969-3.229c-1.972,0-2.272,1.537-2.272,3.127v6.025h-3.783V15.535z"/>
</g>
</svg>
