<?xml version="1.0" encoding="utf-8"?>
<!-- Generator: Adobe Illustrator 16.0.4, SVG Export Plug-In . SVG Version: 6.00 Build 0)  -->
<!DOCTYPE svg PUBLIC "-//W3C//DTD SVG 1.1//EN" "http://www.w3.org/Graphics/SVG/1.1/DTD/svg11.dtd">
<svg version="1.1" id="OUTLINES" xmlns="http://www.w3.org/2000/svg" xmlns:xlink="http://www.w3.org/1999/xlink" x="0px" y="0px"
	 width="99px" height="99px" viewBox="0 -6.5 99 99" enable-background="new 0 -6.5 99 99" xml:space="preserve">
<path fill="#FFFFFF" d="M91.5,44.3v5.2h-7.7v-1.8c1.9-1.5,3.2-3.9,3.2-6.5c0-4.6-3.7-8.3-8.3-8.3c-4.6,0-8.3,3.7-8.3,8.3
	c0,1.7,0.5,3.3,1.4,4.7H61.5v13.7H1.7v11H1.3V85h6.5V72.3h83.7v12.5H98V44.3H91.5z"/>
<polyline fill="#FFFFFF" points="60,46 60,65 2,65 2,46 60,46 "/>
<rect x="2" y="2" fill="#FFFFFF" width="47" height="30"/>
<path fill="#1B7876" d="M75.1,60.3h-2c0-7,5.7-12.7,12.7-12.7c1.7,0,3.4,0.3,4.9,1L90,50.4c-1.3-0.6-2.7-0.8-4.2-0.8
	C79.9,49.6,75.1,54.4,75.1,60.3z"/>
<g>
	<path fill="#1B7876" d="M25.5,11.1c0.3-0.2,0.5-0.5,0.5-0.9c0-0.4-0.2-0.7-0.5-0.9c-1.6-0.9-3.2-1.4-5-1.4c-5.5,0-10,4.5-10,10
		s4.5,10,10,10c1.7,0,3.4-0.5,5-1.4c0.3-0.2,0.5-0.5,0.5-0.9s-0.2-0.7-0.5-0.9c-2.5-1.4-4-4-4-6.8C21.5,15.1,23,12.6,25.5,11.1z
		 M19.5,18c0,2.9,1.3,5.7,3.5,7.5c-0.8,0.3-1.6,0.4-2.5,0.4c-4.4,0-8-3.6-8-8s3.6-8,8-8c0.8,0,1.7,0.1,2.5,0.4
		C20.8,12.3,19.5,15.1,19.5,18z"/>
	<path fill="#1B7876" d="M41.1,15.3c-0.2-0.7-0.8-1.2-1.5-1.3l-1.2-0.3l-0.6-1.1c-0.4-0.6-1-1-1.7-1c-0.7,0-1.4,0.4-1.7,1l-0.6,1.1
		L32.5,14c-0.7,0.2-1.2,0.7-1.5,1.3c-0.3,0.6-0.1,1.4,0.4,1.9l0.8,0.9l-0.1,1.3c-0.1,0.7,0.2,1.4,0.8,1.8c0.3,0.3,0.8,0.4,1.2,0.4
		c0.3,0,0.5-0.1,0.8-0.2l1.2-0.5l1.2,0.5c0.3,0.1,0.5,0.2,0.8,0.2c0.4,0,0.8-0.1,1.2-0.4c0.6-0.4,0.9-1.1,0.8-1.8L40,18.1l0.8-0.9
		C41.2,16.7,41.4,16,41.1,15.3z M37.8,17.5l0.2,2.1l-1.9-0.8l-1.9,0.8l0.2-2.1L32.9,16l2.1-0.5l1.1-1.8l1.1,1.8l2.1,0.5L37.8,17.5z"
		/>
</g>
<g>
	<path fill="#1B7876" d="M2,34h47.4c1.1,0,1.6-1,1.6-2.1V2.4C51,1.3,50.5,0,49.4,0H2C0.9,0,0,1.3,0,2.4v29.5C0,33,0.9,34,2,34z M2,2
		h47v30H2V2z"/>
	<path fill="#1B7876" d="M97,43h-5c-1.1,0-2,0.9-2,2v14H61v2h31V45h5v39h-5V72H7v12H2V64H1v-3.7c-0.6,0.3-1,1-1,1.7v22
		c0,1.1,0.9,2,2,2h5c1.1,0,2-0.9,2-2V74h81v10c0,1.1,0.9,2,2,2h5c1.1,0,2-0.9,2-2V45C99,43.9,98.1,43,97,43z"/>
	<path fill="#1B7876" d="M48,44v2h22.6c1.7,2.7,4.7,4.5,8.1,4.5c5.2,0,9.5-4.2,9.5-9.5s-4.2-9.5-9.5-9.5c-5.2,0-9.5,4.2-9.5,9.5
		c0,1,0.2,2,0.5,2.9L48,44L48,44z M78.7,33.6c4.1,0,7.5,3.3,7.5,7.5c0,4.2-3.3,7.5-7.5,7.5c-4.1,0-7.5-3.3-7.5-7.5
		C71.2,36.9,74.6,33.6,78.7,33.6z"/>
	<path fill="#1B7876" d="M75.8,42.1c0.7,0,1.4-0.3,1.8-0.9c0.3-0.4,0.3-1.1-0.2-1.4C77,39.5,76.3,39.5,76,40c0,0-0.1,0.1-0.3,0.1
		s-0.3-0.2-0.3-0.4c0.1-0.5-0.3-1.1-0.8-1.1c-0.5-0.1-1.1,0.3-1.1,0.8c0,0.1,0,0.2,0,0.4C73.5,41,74.5,42.1,75.8,42.1z"/>
	<path fill="#1B7876" d="M80.2,45c0.7,0,1.4-0.3,1.8-0.9c0.3-0.4,0.3-1.1-0.2-1.4c-0.4-0.3-1.1-0.3-1.4,0.2c0,0-0.1,0.1-0.3,0.1
		c-0.2,0-0.3-0.2-0.3-0.4c0.1-0.5-0.3-1.1-0.8-1.1c-0.5-0.1-1.1,0.3-1.1,0.8c0,0.1,0,0.2,0,0.4C77.9,43.9,79,45,80.2,45z"/>
</g>
<path fill="#1B7876" d="M60,46v19H2V46H60 M2,44c-1.1,0-2,0.5-2,1.6v19.1V67h60.3c1.1,0,1.7-1.3,1.7-2.4V44H2z"/>
</svg>
