<?xml version="1.0" encoding="utf-8"?>
<!-- Generator: Adobe Illustrator 16.0.4, SVG Export Plug-In . SVG Version: 6.00 Build 0)  -->
<!DOCTYPE svg PUBLIC "-//W3C//DTD SVG 1.1//EN" "http://www.w3.org/Graphics/SVG/1.1/DTD/svg11.dtd">
<svg version="1.1" id="Layer_1" xmlns="http://www.w3.org/2000/svg" xmlns:xlink="http://www.w3.org/1999/xlink" x="0px" y="0px"
	 width="39.6px" height="39.6px" viewBox="0 0 39.6 39.6" enable-background="new 0 0 39.6 39.6" xml:space="preserve">
<g>
	<circle fill-rule="evenodd" clip-rule="evenodd" fill="#32BFC1" cx="19.8" cy="19.8" r="19.8"/>
	<g id="Symbol_21_">
		<g>
			<path fill-rule="evenodd" clip-rule="evenodd" fill="#FFFFFF" d="M30.7,13.5c-0.8,0.3-1.6,0.6-2.4,0.7c0.9-0.5,1.5-1.3,1.8-2.3
				c-0.8,0.5-1.7,0.8-2.7,1c-0.8-0.8-1.9-1.3-3.1-1.3c-2.3,0-4.2,1.9-4.2,4.2c0,0.3,0,0.7,0.1,1c-3.5-0.2-6.6-1.8-8.7-4.4
				c-0.4,0.6-0.6,1.3-0.6,2.1c0,1.5,0.7,2.7,1.9,3.5c-0.7,0-1.3-0.2-1.9-0.5v0.1c0,2,1.4,3.7,3.4,4.1c-0.4,0.1-0.7,0.1-1.1,0.1
				c-0.3,0-0.5,0-0.8-0.1c0.5,1.7,2.1,2.9,3.9,2.9c-1.4,1.1-3.2,1.8-5.2,1.8c-0.3,0-0.7,0-1-0.1c1.9,1.2,4.1,1.9,6.4,1.9
				c7.7,0,11.9-6.4,11.9-11.9c0-0.2,0-0.4,0-0.5C29.4,15.1,30.1,14.3,30.7,13.5z"/>
		</g>
	</g>
</g>
</svg>
