<?xml version="1.0" encoding="utf-8"?>
<!-- Generator: Adobe Illustrator 16.0.4, SVG Export Plug-In . SVG Version: 6.00 Build 0)  -->
<!DOCTYPE svg PUBLIC "-//W3C//DTD SVG 1.1//EN" "http://www.w3.org/Graphics/SVG/1.1/DTD/svg11.dtd">
<svg version="1.1" id="Layer_1" xmlns="http://www.w3.org/2000/svg" xmlns:xlink="http://www.w3.org/1999/xlink" x="0px" y="0px"
	 width="117.3px" height="117.3px" viewBox="0 0 117.3 117.3" enable-background="new 0 0 117.3 117.3" xml:space="preserve">
<circle fill-rule="evenodd" clip-rule="evenodd" fill="#FFFFFF" stroke="#818730" stroke-width="2" stroke-miterlimit="10" cx="58.7" cy="45" r="44"/>
<path fill-rule="evenodd" clip-rule="evenodd" fill="none" stroke="#818730" stroke-width="2" stroke-linecap="round" stroke-miterlimit="10" d="
	M15.5,43.3c0,0,6.2,4.4,9.7,5.3c4.3,1.1,8.8,5.3,8.8,7.9c0,2.6-5.3,8.8-2.6,12.3c2.6,3.5,15,18.5,15,18.5"/>
<path fill-rule="evenodd" clip-rule="evenodd" fill="none" stroke="#818730" stroke-width="2" stroke-linecap="round" stroke-miterlimit="10" d="
	M31.4,11.6c0,0,4.4,7,3.5,10.6c-0.9,3.5-0.9,7,0.9,7c1.8,0,7-8.8,9.7-5.3c2.6,3.5,5.4,9.7,1,12.3c0,0-3.4,0-3.4,4.4
	c0,4.4,2,7.9,0,7.9s-3.7-6.2-6.3-7c-2.6-0.9-3.6,0.9-4.5,2.6s-2.7-3.5-3.6-3.5c-0.9,0-3.5,3.5-0.9,4.4c2.6,0.9,2.6,4.4,4.4,4.4
	c1.8,0,1.8-1.8,2.6-0.9c0.9,0.9,0.9,4.4,0.9,5.3c0,0.9,2.6,3.5,3.5,3.5c0.9,0,8.8-3.5,10.6-0.9c1.8,2.6,6.2,4.4,5.3,12.3
	c-0.9,7.9-2.6,12.3-2.6,15.9c0,3.5-0.9,3.5-0.9,3.5"/>
<path fill-rule="evenodd" clip-rule="evenodd" fill="none" stroke="#818730" stroke-width="2" stroke-linecap="round" stroke-miterlimit="10" d="
	M37.5,7.2c0,0-3.5,7.9,2.6,8.8c6.2,0.9,9.7,3.5,13.2,2.6c3.5-0.9,5.3-9.7,3.5-12.3c-1.8-2.6-3.5-4.4-3.5-4.4"/>
<path fill-rule="evenodd" clip-rule="evenodd" fill="none" stroke="#818730" stroke-width="2" stroke-linecap="round" stroke-miterlimit="10" d="
	M90.4,75c0,0-1.8-2.6-1.8-6.2c0-3.5,0-11.5-5.3-13.2c-5.3-1.8-11.5-0.9-11.5-7c0-6.2,10.6-9.7,10.6-9.7s7,0.9,9.7,1.8
	c2.6,0.9,4.4-0.9,3.5-2.6c-0.9-1.8-3.5-6.2-7.9-6.2s-4.4,1.8-6.2,2.6c-1.8,0.9-4.4,5.3-6.2,4.4c-1.8-0.9-3.5-6.2-0.9-7
	c2.6-0.9,4.4-3.5,5.3-4.4c0.9-0.9,5.3,0,6.2-2.6c0.9-2.6-0.9-7-3.5-6.2c-2.6,0.9-2.6,4.4-3.5,4.4c-0.9,0-6.2-0.9-4.4-3.5
	c1.8-2.6,3.5-6.2,7-5.3c3.5,0.9,7-0.9,7-0.9"/>
<path fill-rule="evenodd" clip-rule="evenodd" fill="none" stroke="#818730" stroke-width="2" stroke-miterlimit="10" d="M70.1,23.9
	c0,0,0,0.9,0,3.5s2.6,1.8,3.5,0C74.5,25.7,70.1,22.1,70.1,23.9z"/>
<path fill-rule="evenodd" clip-rule="evenodd" fill="#FFFFFF" stroke="#818730" stroke-width="2" stroke-miterlimit="10" d="
	M49.7,96.2L69.5,116l13.4-13.4L74,93.6l-0.5-0.5l0-16.3c0,0-2.1-0.2-2.4-0.3l0,0c-1.3,0-2.4,1.1-2.4,2.4v9.4l0,0.1l-5.6-5.6l0.1,0.1
	L52.7,72.4c-0.9-0.9-2.5-0.9-3.4,0l0,0c-0.9,0.9-0.9,2.5,0,3.4l10.5,10.5l0-0.1L49.4,75.7c-0.9-0.9-2.5-0.9-3.4,0l0,0
	c-0.9,0.9-0.9,2.5,0,3.4l10.5,10.5l0-0.1L46,79c-0.9-0.9-2.5-0.9-3.4,0l0,0c-0.9,0.9-0.9,2.5,0,3.4L53.2,93l0-0.1L42.7,82.4
	c-0.9-0.9-2.5-0.9-3.4,0l0,0c-0.9,0.9-0.9,2.5,0,3.4l10.5,10.5"/>
</svg>
