<?xml version="1.0" encoding="utf-8"?>
<!-- Generator: Adobe Illustrator 16.0.4, SVG Export Plug-In . SVG Version: 6.00 Build 0)  -->
<!DOCTYPE svg PUBLIC "-//W3C//DTD SVG 1.1//EN" "http://www.w3.org/Graphics/SVG/1.1/DTD/svg11.dtd">
<svg version="1.1" id="Layer_1" xmlns="http://www.w3.org/2000/svg" xmlns:xlink="http://www.w3.org/1999/xlink" x="0px" y="0px"
	 width="120.8px" height="120.8px" viewBox="-8 0 120.8 120.8" enable-background="new -8 0 120.8 120.8" xml:space="preserve">
<g>
	<path fill="#FFFFFF" d="M22.8,119.8c-0.6,0-1.4-0.1-1.4-0.7V90.7C8.4,81.4,1,66.4,1,50.3C1,23.1,23.4,1,50.8,1
		c27.1,0,49.3,22.1,49.3,49.3c0,2.8-0.3,5.8-1,9.4l4.7,15.9c0.1,0.3,0,0.5-0.1,0.8c-0.1,0.2-0.4,0.4-0.7,0.5l-7.6,1.7v11.9
		c0,5.7-3.5,11.4-9.5,11.4H73.4v17.3c0,0.6-0.4,0.7-0.9,0.7L22.8,119.8L22.8,119.8z"/>
	<path fill="#D14D43" d="M50.9,2c26.7,0,48.2,21.6,48.2,48.3c0,3.2-0.4,6.4-1,9.4l4.7,16.2l-8.4,1.9v12.7c0,5.3-3.2,10.4-8.5,10.4
		H72.4v18h-50V90.2C10.4,81.5,2,66.8,2,50.3C2,23.6,24.2,2,50.9,2 M50.9,0C22.9,0,0,22.6,0,50.3c0,16.2,7.4,31.4,20.4,40.9v28
		c0,1.1,1.3,1.7,2.4,1.7h49.7c1.1,0,1.9-0.6,1.9-1.7v-16.3h11.5c5.2,0,10.5-4.5,10.5-12.4V79.4l6.9-1.6c0.5-0.1,1-0.5,1.3-0.9
		s0.4-1,0.2-1.6l-4.6-15.7c0.7-3.5,1-6.5,1-9.3C101.1,22.6,78.6,0,50.9,0L50.9,0z"/>
</g>
<g>
	<path fill="#FFFFFF" d="M40.5,69.7c-4,0-7.7-1.4-10.7-4.1c-2,1.1-4.2,1.8-6.5,1.8c-7.2,0-13.1-5.9-13.1-13.1
		c0-4.6,2.3-8.7,6.2-11.1c-1-2.3-1.4-4.7-1.4-7.1c0-10.2,8.3-18.4,18.4-18.4c2.6,0,5.2,0.6,7.6,1.7c2.5-4.8,7.4-7.9,12.9-7.9
		c7.2,0,13.2,5.3,14.3,12.3c1.5-0.6,3.2-1,4.8-1c6.9,0,12.3,5.5,12.3,12.6c0,6.8-5.9,12.6-13,12.6c-0.5,0-1,0-1.5-0.1
		c-0.5,7.7-6.2,13.4-13.7,13.4c-1,0-1.6-0.1-2.4-0.3C52,66.3,46.5,69.7,40.5,69.7z"/>
	<path fill="#D14D43" d="M54,12.4c7.2,0,13.1,5.7,13.4,12.8c1.7-0.9,3.6-1.5,5.6-1.5c6.4,0,11.3,5.2,11.3,11.6
		c0,6.4-5.8,11.6-12.2,11.6c-0.6,0-1.7-0.1-2.7-0.2l0,0c0,7.4-5.1,13.5-12.6,13.5c-1.2,0-1.6-0.2-2.8-0.5c-2.3,5.3-7.5,8.9-13.6,8.9
		c-4.1,0-7.8-1.7-10.5-4.4c-1.9,1.3-4.2,2-6.7,2c-6.7,0-12.1-5.4-12.1-12.1c0-4.6,2.6-8.7,6.5-10.7c-1.1-2.3-1.7-4.8-1.7-7.5
		c0-9.6,7.8-17.4,17.4-17.4c2.9,0,5.7,0.7,8.1,2C43.6,15.8,48.4,12.4,54,12.4 M54,10.4c-5.6,0-10.6,2.9-13.4,7.7
		c-2.3-0.9-4.7-1.4-7.2-1.4C22.7,16.6,14,25.3,14,36.1c0,2.3,0.4,4.6,1.2,6.7c-3.7,2.6-5.9,6.9-5.9,11.5c0,7.8,6.3,14.1,14.1,14.1
		c2.2,0,4.4-0.5,6.4-1.5c3,2.5,6.8,3.9,10.8,3.9c6.1,0,11.7-3.3,14.7-8.6c0.5,0.1,1.1,0.2,1.8,0.2c7.7,0,13.7-5.6,14.6-13.3
		c0.2,0,0.4,0,0.6,0c7.6,0,14-6.2,14-13.6c0-7.6-5.8-13.6-13.3-13.6c-1.4,0-2.7,0.2-4,0.6C67.4,15.4,61.3,10.4,54,10.4L54,10.4z"/>
</g>
<line fill="none" stroke="#D14D43" stroke-width="2" stroke-linecap="round" stroke-miterlimit="10" x1="45.9" y1="27.8" x2="45.9" y2="23.9"/>
<line fill="none" stroke="#D14D43" stroke-width="2" stroke-linecap="round" stroke-miterlimit="10" x1="55.3" y1="31.7" x2="58.1" y2="28.9"/>
<line fill="none" stroke="#D14D43" stroke-width="2" stroke-linecap="round" stroke-miterlimit="10" x1="59.3" y1="41.1" x2="63.1" y2="41.1"/>
<line fill="none" stroke="#D14D43" stroke-width="2" stroke-linecap="round" stroke-miterlimit="10" x1="32.6" y1="41.2" x2="28.7" y2="41.2"/>
<line fill="none" stroke="#D14D43" stroke-width="2" stroke-linecap="round" stroke-miterlimit="10" x1="36.5" y1="31.7" x2="33.7" y2="29"/>
<g>
	<path fill="#D14D43" d="M45.9,33.7c4.1,0,7.5,3.4,7.5,7.5c0,2.5-1.2,4.6-3,6v2.7h-9v-2.7c-1.8-1.4-3-3.5-3-6
		C38.4,37,41.8,33.7,45.9,33.7 M45.9,31.7c-5.2,0-9.5,4.3-9.5,9.5c0,2.6,1.1,5.1,3,6.9v1.8c0,1.1,0.9,2,2,2h9c1.1,0,2-0.9,2-2v-1.7
		c1.9-1.8,3-4.3,3-6.9C55.4,35.9,51.2,31.7,45.9,31.7L45.9,31.7z"/>
</g>
<path fill="none" stroke="#D14D43" stroke-width="2" stroke-linecap="round" stroke-linejoin="round" stroke-miterlimit="10" d="
	M41.3,53.7h9.1H41.3z"/>
<path fill="none" stroke="#D14D43" stroke-width="2" stroke-linecap="round" stroke-linejoin="round" stroke-miterlimit="10" d="
	M42.3,56.7h7.1H42.3z"/>
</svg>
