<?xml version="1.0" encoding="utf-8"?>
<!-- Generator: Adobe Illustrator 16.0.4, SVG Export Plug-In . SVG Version: 6.00 Build 0)  -->
<!DOCTYPE svg PUBLIC "-//W3C//DTD SVG 1.1//EN" "http://www.w3.org/Graphics/SVG/1.1/DTD/svg11.dtd">
<svg version="1.1" id="Layer_1" xmlns="http://www.w3.org/2000/svg" xmlns:xlink="http://www.w3.org/1999/xlink" x="0px" y="0px"
	 width="38px" height="38px" viewBox="0 0 38 38" enable-background="new 0 0 38 38" xml:space="preserve">
<circle fill-rule="evenodd" clip-rule="evenodd" fill="#32BFC1" cx="19" cy="19" r="19"/>
<path fill="#FFFFFF" d="M25.844,11.213c1.869,0.049,2.804,1.11,2.812,3.185c0,0.137-0.004,0.278-0.012,0.424
	c-0.082,1.761-1.392,4.156-3.934,7.19c-2.621,3.178-4.843,4.768-6.67,4.776c-1.136,0-2.08-0.974-2.836-2.919l-0.794-2.668
	l-0.788-2.666c-0.577-1.931-1.195-2.893-1.857-2.893c-0.145,0-0.646,0.281-1.505,0.842l-0.919-1.085l1.424-1.182l1.399-1.17
	c1.254-1.005,2.209-1.548,2.86-1.629c0.088-0.009,0.175-0.011,0.264-0.011c1.344,0,2.182,0.964,2.51,2.894
	c0.184,1.101,0.336,1.995,0.459,2.683c0.119,0.69,0.221,1.17,0.299,1.443c0.444,1.824,0.922,2.742,1.438,2.749
	c0.394,0,1.002-0.595,1.822-1.783c0.802-1.223,1.232-2.127,1.289-2.717c0.018-0.12,0.023-0.232,0.023-0.335
	c0-0.798-0.438-1.195-1.312-1.195c-0.443,0-0.916,0.094-1.425,0.276c0.909-2.8,2.654-4.2,5.235-4.21
	C25.7,11.213,25.771,11.213,25.844,11.213z"/>
</svg>
