<?xml version="1.0" encoding="utf-8"?>
<!-- Generator: Adobe Illustrator 16.0.4, SVG Export Plug-In . SVG Version: 6.00 Build 0)  -->
<!DOCTYPE svg PUBLIC "-//W3C//DTD SVG 1.1//EN" "http://www.w3.org/Graphics/SVG/1.1/DTD/svg11.dtd">
<svg version="1.1" id="Layer_1" xmlns="http://www.w3.org/2000/svg" xmlns:xlink="http://www.w3.org/1999/xlink" x="0px" y="0px"
	 width="38.7px" height="38.7px" viewBox="0 0 38.7 38.7" enable-background="new 0 0 38.7 38.7" xml:space="preserve">
<g>
	<circle fill-rule="evenodd" clip-rule="evenodd" fill="#32BFC1" cx="19.4" cy="19.4" r="19.4"/>
	<g>
		<path fill="#FFFFFF" d="M12.1,9.6h14.5c1.4,0,2.5,1.1,2.5,2.5v14.5c0,1.4-1.1,2.5-2.5,2.5H12.1c-1.4,0-2.5-1.1-2.5-2.5V12.1
			C9.6,10.7,10.7,9.6,12.1,9.6z M23.8,11.8c-0.5,0-0.9,0.4-0.9,0.9v2.1c0,0.5,0.4,0.9,0.9,0.9H26c0.5,0,0.9-0.4,0.9-0.9v-2.1
			c0-0.5-0.4-0.9-0.9-0.9H23.8z M26.9,17.9h-1.7c0.2,0.5,0.3,1.1,0.3,1.7c0,3.2-2.7,5.9-6.1,5.9c-3.3,0-6.1-2.6-6.1-5.9
			c0-0.6,0.1-1.1,0.3-1.7h-1.8v8.2c0,0.4,0.3,0.8,0.8,0.8h13.6c0.4,0,0.8-0.3,0.8-0.8V17.9z M19.4,15.5c-2.2,0-3.9,1.7-3.9,3.8
			c0,2.1,1.8,3.8,3.9,3.8s3.9-1.7,3.9-3.8C23.3,17.2,21.6,15.5,19.4,15.5z"/>
	</g>
</g>
</svg>
