<svg xmlns="http://www.w3.org/2000/svg" width="400" height="106.7" viewBox="0 0 400 106.7"><g fill="#0C3535"><path d="M161.1 37.3v38.3H155l-21.5-32.9v25.8h5.7V75H127V37.3h-5.4v-6.5h12.5c2.2 3.6 4.3 6.9 6.3 9.9s4 6 5.9 9c2.7 4.1 5.5 8.2 8.2 12.5V30.8h11.9v6.5h-5.3zM190.2 75.1v-2.2c-.4.2-.7.4-1.1.6-.4.2-.7.4-1.1.6-2.1 1-4.4 1.4-6.8 1.4-1.3 0-2.5-.2-3.6-.6-1.1-.4-2.1-1-3-1.9-.9-.8-1.5-1.8-1.9-2.9s-.6-2.3-.6-3.6v-17h-4.9V43H179v23c0 1.9.9 2.9 2.7 2.9 1.4 0 2.9-.4 4.6-1.3 1.5-.8 2.8-1.7 3.9-2.7V43h6.9v25.5h4.9V75h-11.8zM241.7 75.1v-31l-12.7 31h-3.2l-12.5-31v31h-6.6V37.3h-5.2v-6.5H215l12.8 30.8 12.6-30.8H254v6.5h-5.1v31.3h5.1v6.5h-12.3zM278.6 75.1v-2.2c-.4.2-.7.4-1.1.6-.4.2-.7.4-1.1.6-2.1 1-4.4 1.4-6.8 1.4-1.3 0-2.5-.2-3.6-.6-1.1-.4-2.1-1-3-1.9-.9-.8-1.5-1.8-1.9-2.9s-.6-2.3-.6-3.6v-17h-4.9V43h11.9v23c0 1.9.9 2.9 2.7 2.9 1.4 0 2.9-.4 4.6-1.3 1.6-.8 2.8-1.7 3.9-2.7V43h6.9v25.5h4.9V75h-11.9zM314.4 75.1V51.9c0-1.1-.2-1.8-.7-2.3-.5-.5-1.2-.7-2.2-.7-.7 0-1.4.1-2.1.3-.7.2-1.5.5-2.4 1-.8.4-1.5.8-2.1 1.2-.7.4-1.3.9-1.8 1.4v22.4h-6.9V49.5H291V43h12v2c1.4-.8 2.8-1.4 4.2-1.9s3-.7 4.7-.7c1.4 0 2.6.2 3.7.6 1.1.4 2.2 1.1 3.1 2 1.7 1.7 2.6 4 2.6 6.7v17h4.5v6.5h-11.4zM351.8 75.1v-2.6c-.4.3-.7.6-1.1.8-.4.2-.8.5-1.2.7-2.1 1-4.4 1.5-6.7 1.5-4.5 0-8.3-1.6-11.3-4.7s-4.5-7-4.5-11.7c0-4.8 1.5-8.8 4.4-12 3-3.2 6.7-4.8 11.3-4.8 2.4 0 4.7.6 6.8 1.7.9.4 1.7 1 2.4 1.6V30.8h6.9v37.8h5.1v6.5h-12.1zm-2.7-23.5c-1.8-1.9-3.9-2.9-6.4-2.9-2.5 0-4.6 1-6.4 2.9-1.7 2-2.6 4.5-2.6 7.5 0 2.9.9 5.2 2.7 7.2 1.8 1.9 3.9 2.9 6.4 2.9 2.7 0 4.8-.9 6.5-2.8 1.7-1.9 2.6-4.4 2.6-7.4-.1-3-1-5.5-2.8-7.4zM392.5 71c-3 3.3-6.8 4.9-11.4 4.9-4.6 0-8.4-1.6-11.4-4.9-3-3.3-4.5-7.2-4.5-11.9s1.5-8.7 4.5-11.9c3-3.3 6.8-4.9 11.4-4.9 4.6 0 8.4 1.6 11.4 4.9 3 3.3 4.5 7.2 4.5 11.9s-1.5 8.6-4.5 11.9zm-5-19.3c-1.7-1.9-3.8-2.8-6.4-2.8s-4.8.9-6.4 2.8c-1.7 1.9-2.6 4.4-2.6 7.4s.9 5.5 2.6 7.4c1.7 1.9 3.8 2.8 6.4 2.8s4.8-.9 6.4-2.8c1.7-1.9 2.6-4.4 2.6-7.4-.1-3-.9-5.5-2.6-7.4z"/></g><path fill="#0C3535" d="M102.7 32.8c-2.7-6.3-6.5-12-11.3-16.8-4.9-4.9-10.5-8.7-16.8-11.3C68.1 1.9 61.1.5 54 .5c-7.1 0-14.1 1.4-20.6 4.2-6.3 2.6-11.9 6.4-16.8 11.3C11.8 20.8 8 26.5 5.3 32.8c-2.8 6.5-4.2 13.4-4.2 20.6S2.5 67.5 5.3 74c2.7 6.3 6.5 11.9 11.3 16.8 4.9 4.9 10.5 8.7 16.8 11.3 6.5 2.8 13.4 4.2 20.6 4.2 7.1 0 14.1-1.4 20.6-4.2 6.3-2.7 11.9-6.5 16.8-11.3 4.9-4.9 8.7-10.5 11.3-16.8 2.8-6.5 4.2-13.4 4.2-20.6s-1.4-14.1-4.2-20.6zM61.6 54.2c-3.6-1.7-6.2-4.9-7.2-8.8C57.5 47.8 61.2 49 65 49c4.3 0 8.4-1.5 11.6-4.4 3.2-2.8 5.3-6.6 5.9-10.7-3.2-5.7-8.9-9.2-15.2-9.2-2.8 0-5.6.7-8.1 2-2.4 1.2-4.4 3-6 5.1-.4-3.9-2.4-7-6-8.9-1.8-.8-3.4-1.2-5-1.2-1.8 0-3.2.5-4.4.9-.5.7-2.2 3.2-2.5 6.5-.3 3.2.8 6.1 3.2 8.6 2.6 2.6 5.6 3.2 7.8 3.2 1.9 0 3.3-.4 3.7-.5-.7 5.3 1.5 10.3 3.7 13-8.6.1-16.6 3.6-22.7 9.6-6.1 6-9.5 14.1-9.7 22.6-8.8-8.8-13.5-20.2-13.5-32.3C7.8 27.9 28.5 7.2 54 7.2c25.5 0 46.2 20.7 46.2 46.2 0 12-4.7 23.5-13.2 32.2-.4-15.1-10.8-27.9-25.4-31.4z"/><path fill="#B2C04B" d="M54.4 39.2c1.4-5.8 6.6-10 12.8-10 4.4 0 8.2 2.1 10.6 5.4-1.4 5.8-6.6 10-12.8 10-4.3-.1-8.2-2.2-10.6-5.4zM47.7 36.2c-6.3 1.6-10.2-5.2-7.3-9.8 6.8-1.4 10.1 5.7 7.3 9.8z"/><path fill="#32BFC1" d="M44.8 98.6c-6.1-1.2-11.7-3.6-16.7-7-.3-1.7-1.3-5.9.5-12.6 2.1 4.3 5.4 10.1 8.8 12.4 8.3 5.5 8.5 2.8 7.4 7.2zM75.2 81.6c-2.8 4.3-7.9 10.6-1.8 11.2 1.3.1 2.3.4 3 .9-6 3.3-12.8 5.4-20 5.7-4-1.9-8.6-3.2-9.1-4-1-1.4-12.6-7.7-10-10 2.6-2.4 7.7 2.1 9.3 1.6 2.1-.6-1.9-4 .3-6.5 2.2-2.5 6.1-4.1 4.9-11.6-.5-3.3-1.1-6.4-2.1-8.5 11.9-1.9 20.9 4 25.7 10.6-.8.6-2 1.8-2 3.8 0 2.9 1 2.2 5.3 2.5.4 1.1.7 2.2 1 3.3-1.4-.9-3.1-1.1-4.5 1z"/><path fill="#FFF" stroke="#0C3535" stroke-width=".25" stroke-miterlimit="10" d="M87 85.6c-.3-15.3-11-28-25.4-31.4-3.6-1.7-6.3-5-7.2-8.9 3 2.3 6.6 3.6 10.6 3.6 8.8 0 16.2-6.6 17.4-15.1-3-5.4-8.6-9.2-15.2-9.2-5.8 0-10.9 2.8-14.1 7.2-.3-3.7-2.2-6.9-6-8.9-4.3-2-7.2-1.1-9.5-.3-2.1 2.8-4.8 9.4.7 15 4.9 5 11.5 2.6 11.5 2.6-.7 5.1 1.3 10.1 3.8 13.1-17.9.3-32.2 14.6-32.6 32.3-8.2-8.3-13.2-19.7-13.2-32.3C7.8 27.8 28.5 7.1 54 7.1s46.2 20.7 46.2 46.2c0 12.6-5.1 24-13.2 32.3z"/></svg>