<?xml version="1.0" encoding="utf-8"?>
<!-- Generator: Adobe Illustrator 16.0.4, SVG Export Plug-In . SVG Version: 6.00 Build 0)  -->
<!DOCTYPE svg PUBLIC "-//W3C//DTD SVG 1.1//EN" "http://www.w3.org/Graphics/SVG/1.1/DTD/svg11.dtd">
<svg version="1.1" xmlns="http://www.w3.org/2000/svg" xmlns:xlink="http://www.w3.org/1999/xlink" x="0px" y="0px"
	 width="1599.08px" height="283.465px" viewBox="0 0 1599.08 283.465" enable-background="new 0 0 1599.08 283.465"
	 xml:space="preserve">
<g id="NO_OUTLINES" display="none">
	
		<text transform="matrix(1 0 0 1 335.6846 189.5557)" display="inline" fill="#0C3535" font-family="'Nilland-Black'" font-size="124">NuMundo</text>
	<path display="inline" fill="#0C3535" d="M141.732,0C63.456,0,0,63.461,0,141.732c0,78.277,63.456,141.732,141.732,141.732
		c78.271,0,141.732-63.455,141.732-141.732C283.465,63.461,220.004,0,141.732,0z M230.217,228.343
		c-0.905-40.981-29.631-75.03-68.034-84.137c-9.654-4.55-16.921-13.299-19.412-23.944c7.924,6.038,17.774,9.66,28.489,9.66
		c23.721,0,43.352-17.59,46.69-40.394c-8.062-14.538-23.011-24.567-40.785-24.567c-15.582,0-29.371,7.618-37.97,19.291
		c-0.825-9.914-5.798-18.521-16.062-24.009c-11.569-5.346-19.236-2.846-25.375-0.882c-5.694,7.536-12.971,25.122,1.789,40.221
		c13.017,13.315,30.771,7,30.771,7c-1.923,13.649,3.559,27.117,10.109,35.214c-47.682,0.698-86.195,39.043-87.187,86.656
		c-21.944-22.382-35.525-52.977-35.525-86.72c0-68.381,55.635-124.016,124.016-124.016s124.016,55.635,124.016,124.016
		C265.748,175.447,252.132,205.973,230.217,228.343z"/>
	<path display="inline" fill="#B2C04B" d="M142.8,103.71c3.812-15.456,17.733-26.938,34.365-26.938
		c11.679,0,22.008,5.675,28.461,14.395c-3.812,15.462-17.728,26.944-34.366,26.944C159.582,118.11,149.253,112.43,142.8,103.71z"/>
	<path display="inline" fill="#B2C04B" d="M124.927,95.792c-16.986,4.19-27.361-13.935-19.539-26.229
		C123.44,65.607,132.315,84.732,124.927,95.792z"/>
	<path display="inline" fill="#32BFC1" d="M117.09,263.205c-16.28-3.305-31.448-9.729-44.747-18.743
		c-0.935-4.573-3.445-15.898,1.338-33.727c5.732,11.604,14.442,27.23,23.622,33.276C119.397,258.563,120.006,251.513,117.09,263.205
		z"/>
	<path display="inline" fill="#32BFC1" d="M198.665,217.622c-7.399,11.603-21.107,28.507-4.752,30.093
		c3.553,0.346,6.147,1.147,8.045,2.301c-16.062,8.968-34.303,14.389-53.715,15.404c-10.865-4.995-22.97-8.646-24.545-10.854
		c-2.635-3.685-33.795-20.588-26.926-26.921c6.868-6.338,20.588,5.577,24.942,4.216c5.508-1.718-5.058-10.663,0.929-17.405
		c5.992-6.747,16.407-11.102,13.218-31.159c-1.407-8.823-3.011-17.128-5.715-22.814c31.917-5.084,56.188,10.669,69.066,28.547
		c-2.07,1.568-5.288,4.833-5.3,10.109c-0.012,7.746,2.816,5.927,14.256,6.742c1.067,2.896,1.979,5.859,2.665,8.916
		C207.027,212.604,202.327,211.872,198.665,217.622z"/>
</g>
<g id="OUTLINES">
	<g>
		<g>
			<path fill="#0C3535" d="M403.637,141.815c-1.407,3.556-3.556,6.655-6.448,9.3c-2.895,2.647-6.2,4.589-9.92,5.828
				c-3.72,1.24-7.812,1.86-12.276,1.86H359.74v25.172v9.548H333.7v-13.516h11.16v-65.101H333.7v-13.516h40.053
				c4.712,0,9.03,0.601,12.958,1.798c3.925,1.199,7.378,3.121,10.354,5.767c2.977,2.646,5.165,5.725,6.572,9.237
				c1.404,3.515,2.107,7.502,2.107,11.966C405.744,134.376,405.041,138.263,403.637,141.815z M389.749,123.153
				c-0.744-1.941-1.695-3.45-2.853-4.525c-1.24-1.157-3.019-2.065-5.332-2.729c-2.315-0.66-5.332-0.992-9.052-0.992H359.74v30.381
				h12.772c3.389,0,6.22-0.33,8.494-0.992c2.272-0.661,4.153-1.569,5.642-2.729c1.321-1.073,2.356-2.458,3.101-4.153
				c0.743-1.693,1.115-3.864,1.115-6.511C390.864,127.68,390.492,125.097,389.749,123.153z"/>
			<path fill="#0C3535" d="M457.699,140.204c-3.968,0-7.254,0.455-9.857,1.363c-2.604,0.911-4.693,2.067-6.263,3.473
				c-1.487,1.323-2.646,2.895-3.472,4.712c-0.827,1.819-1.24,4.464-1.24,7.936v22.32h12.028v13.516h-26.412v-9.548v-43.523h-11.16
				v-13.517h25.544v6.944c0.329-0.165,1.073-0.64,2.232-1.426c1.156-0.785,2.313-1.467,3.472-2.047
				c2.729-1.321,5.228-2.231,7.502-2.728c2.272-0.496,4.855-0.701,7.75-0.62l6.2,0.124v13.021H457.699z"/>
			<path fill="#0C3535" d="M517.962,185.092c-6.283,6.777-14.22,10.168-23.809,10.168c-9.59,0-17.526-3.391-23.808-10.168
				c-6.283-6.777-9.424-15.045-9.424-24.8c0-9.754,3.141-18.021,9.424-24.801c6.281-6.777,14.218-10.168,23.808-10.168
				c9.589,0,17.525,3.391,23.809,10.168c6.281,6.779,9.424,15.047,9.424,24.801C527.386,170.047,524.243,178.314,517.962,185.092z
				 M507.546,144.916c-3.473-3.885-7.937-5.828-13.393-5.828s-9.92,1.943-13.392,5.828c-3.556,3.968-5.332,9.095-5.332,15.376
				c0,6.283,1.776,11.407,5.332,15.376c3.472,3.887,7.936,5.828,13.392,5.828s9.92-1.941,13.393-5.828
				c3.553-3.969,5.332-9.093,5.332-15.376C512.878,154.011,511.099,148.884,507.546,144.916z"/>
			<path fill="#0C3535" d="M552.807,206.048c-0.992,2.728-2.604,5.124-4.836,7.191c-2.151,1.984-4.836,3.492-8.061,4.526
				c-3.224,1.033-7.563,1.343-13.02,0.93V205.18c2.728,0.165,4.938,0.103,6.634-0.186c1.693-0.291,3.017-0.849,3.968-1.675
				c0.949-0.827,1.591-1.902,1.922-3.224c0.33-1.323,0.496-2.936,0.496-4.836v-54.808h-10.788v-13.517h25.172v69.937
				C554.294,200.261,553.798,203.319,552.807,206.048z M551.69,115.403c-1.902,1.736-4.011,2.604-6.324,2.604
				c-2.315,0-4.423-0.868-6.324-2.604c-1.735-1.9-2.604-4.009-2.604-6.323c0-2.562,0.868-4.713,2.604-6.448
				c1.901-1.736,4.009-2.604,6.324-2.604c2.313,0,4.422,0.868,6.324,2.604c1.736,1.902,2.604,4.011,2.604,6.324
				C554.294,111.519,553.427,113.668,551.69,115.403z"/>
			<path fill="#0C3535" d="M575.746,165.624c0.825,3.887,2.645,7.358,5.456,10.416c3.968,4.051,8.969,6.075,15.004,6.075
				c1.073,0,2.396-0.186,3.968-0.558c1.569-0.372,3.162-0.847,4.774-1.426c1.611-0.577,3.182-1.157,4.712-1.736
				c1.528-0.577,2.79-1.073,3.782-1.488l3.72,12.524c-3.308,1.24-6.119,2.211-8.432,2.914c-2.315,0.701-4.713,1.364-7.192,1.984
				c-2.48,0.619-4.588,0.93-6.324,0.93c-9.839,0-18.022-3.348-24.552-10.044c-6.448-6.696-9.672-15.004-9.672-24.924
				c0-10.085,3.182-18.434,9.548-25.048c6.448-6.613,14.549-9.921,24.304-9.921c9.672,0,17.525,3.267,23.561,9.797
				c3.057,3.391,5.394,7.461,7.006,12.214c1.612,4.754,2.623,10.85,3.038,18.29H575.746z M607.242,143.552
				c-3.225-3.224-7.523-4.836-12.896-4.836c-5.539,0-10.086,1.983-13.64,5.952c-1.902,2.15-3.308,4.63-4.216,7.439h35.96
				C611.375,148.803,609.639,145.95,607.242,143.552z"/>
			<path fill="#0C3535" d="M694.971,183.107c-2.026,2.729-4.361,5.003-7.006,6.82c-5.127,3.554-10.995,5.332-17.608,5.332
				c-9.755,0-17.691-3.308-23.808-9.92c-6.118-6.613-9.176-14.962-9.176-25.048c0-9.837,3.017-18.062,9.052-24.677
				c6.2-6.86,13.929-10.292,23.188-10.292c3.057,0,5.992,0.415,8.804,1.24c2.81,0.827,5.413,2.191,7.812,4.092h11.408v26.536
				h-13.144c-0.167-4.712-0.663-8.079-1.488-10.105c-0.827-2.025-1.86-3.491-3.1-4.402c-2.977-2.396-6.408-3.596-10.292-3.596
				c-5.208,0-9.425,1.859-12.648,5.58c-3.391,3.887-5.084,9.095-5.084,15.624c0,3.472,0.453,6.469,1.364,8.989
				c0.908,2.523,2.189,4.733,3.844,6.635c3.306,3.72,7.77,5.58,13.392,5.58c2.149,0,4.03-0.268,5.643-0.807
				c1.611-0.536,3.078-1.302,4.401-2.294c1.322-1.073,2.583-2.459,3.782-4.154c1.197-1.693,2.583-4.359,4.154-7.997l12.399,5.331
				C698.958,176.536,696.995,180.38,694.971,183.107z"/>
			<path fill="#0C3535" d="M729.257,194.888c-2.315,0-4.402-0.31-6.263-0.93c-1.859-0.62-3.493-1.675-4.897-3.162
				c-1.407-1.405-2.378-3.038-2.914-4.898c-0.539-1.859-0.806-3.863-0.806-6.014v-39.432h-10.416v-13.517h10.416v-13.02
				l14.384-0.372v13.392h12.275v13.517h-12.275v38.191c0,1.323,0.124,2.15,0.372,2.48h0.62l11.283-1.86v13.64L729.257,194.888z"/>
			<path fill="#0C3535" d="M857.099,114.907v79.732H844.45l-44.64-68.324v53.692h11.903v13.516h-25.668v-9.548v-69.068h-11.283
				v-13.516h26.039c4.629,7.44,9.01,14.322,13.145,20.646c4.133,6.323,8.225,12.545,12.276,18.661
				c5.703,8.433,11.407,17.112,17.111,26.04v-55.8v-9.548h24.676v13.516H857.099z"/>
			<path fill="#0C3535" d="M918.231,193.523v-4.588c-0.744,0.415-1.488,0.825-2.232,1.24c-0.743,0.412-1.53,0.825-2.355,1.24
				c-4.464,1.983-9.176,2.976-14.136,2.976c-2.729,0-5.251-0.394-7.564-1.178c-2.315-0.787-4.383-2.089-6.2-3.906
				c-1.819-1.736-3.143-3.761-3.968-6.076c-0.827-2.313-1.24-4.793-1.24-7.439v-35.34h-10.292v-13.517h24.677v47.74
				c0,3.968,1.9,5.952,5.703,5.952c2.894,0,6.076-0.868,9.549-2.604c3.224-1.652,5.909-3.513,8.06-5.58v-35.96v-9.548h14.384v53.072
				h10.168v13.516H918.231z"/>
			<path fill="#0C3535" d="M958.159,165.624c0.825,3.887,2.645,7.358,5.456,10.416c3.968,4.051,8.969,6.075,15.004,6.075
				c1.073,0,2.396-0.186,3.968-0.558c1.569-0.372,3.162-0.847,4.774-1.426c1.611-0.577,3.182-1.157,4.712-1.736
				c1.528-0.577,2.79-1.073,3.782-1.488l3.72,12.524c-3.308,1.24-6.119,2.211-8.432,2.914c-2.315,0.701-4.713,1.364-7.192,1.984
				c-2.48,0.619-4.588,0.93-6.324,0.93c-9.839,0-18.022-3.348-24.552-10.044c-6.448-6.696-9.672-15.004-9.672-24.924
				c0-10.085,3.182-18.434,9.548-25.048c6.448-6.613,14.549-9.921,24.304-9.921c9.672,0,17.525,3.267,23.561,9.797
				c3.057,3.391,5.394,7.461,7.006,12.214c1.612,4.754,2.623,10.85,3.038,18.29H958.159z M989.655,143.552
				c-3.225-3.224-7.523-4.836-12.896-4.836c-5.539,0-10.086,1.983-13.64,5.952c-1.902,2.15-3.308,4.63-4.216,7.439h35.96
				C993.788,148.803,992.052,145.95,989.655,143.552z"/>
			<path fill="#0C3535" d="M1070.876,140.452l-19.841,53.939h-11.407l-20.708-53.939h-10.912v-13.517h32.24v13.517h-6.324
				l11.284,30.38l13.144-35.712l3.1-8.185h19.717v13.517H1070.876z"/>
			<path fill="#0C3535" d="M1138.208,185.092c-6.283,6.777-14.22,10.168-23.809,10.168c-9.59,0-17.526-3.391-23.808-10.168
				c-6.283-6.777-9.424-15.045-9.424-24.8c0-9.754,3.141-18.021,9.424-24.801c6.281-6.777,14.218-10.168,23.808-10.168
				c9.589,0,17.525,3.391,23.809,10.168c6.281,6.779,9.424,15.047,9.424,24.801C1147.632,170.047,1144.489,178.314,1138.208,185.092
				z M1127.792,144.916c-3.473-3.885-7.937-5.828-13.393-5.828s-9.92,1.943-13.392,5.828c-3.556,3.968-5.332,9.095-5.332,15.376
				c0,6.283,1.776,11.407,5.332,15.376c3.472,3.887,7.936,5.828,13.392,5.828s9.92-1.941,13.393-5.828
				c3.553-3.969,5.332-9.093,5.332-15.376C1133.124,154.011,1131.345,148.884,1127.792,144.916z"/>
			<path fill="#0C3535" d="M1273.242,193.523v-9.548v-54.808l-26.412,64.355h-6.696l-26.039-64.479v50.964h10.044v13.516h-23.809
				v-9.548v-69.068h-10.912v-13.516h28.148l26.536,64.108l26.288-64.108h28.271v13.516h-10.54v65.101h10.54v13.516H1273.242z"/>
			<path fill="#0C3535" d="M1351.487,193.523v-4.588c-0.744,0.415-1.488,0.825-2.232,1.24c-0.743,0.412-1.53,0.825-2.355,1.24
				c-4.464,1.983-9.176,2.976-14.136,2.976c-2.729,0-5.251-0.394-7.564-1.178c-2.315-0.787-4.383-2.089-6.2-3.906
				c-1.819-1.736-3.143-3.761-3.968-6.076c-0.827-2.313-1.24-4.793-1.24-7.439v-35.34h-10.292v-13.517h24.677v47.74
				c0,3.968,1.9,5.952,5.703,5.952c2.894,0,6.076-0.868,9.549-2.604c3.224-1.652,5.909-3.513,8.06-5.58v-35.96v-9.548h14.384v53.072
				h10.168v13.516H1351.487z"/>
			<path fill="#0C3535" d="M1425.886,193.523v-9.548v-38.563c0-2.232-0.477-3.845-1.426-4.837c-0.951-0.991-2.501-1.487-4.65-1.487
				c-1.406,0-2.873,0.207-4.401,0.62c-1.531,0.414-3.205,1.075-5.022,1.983c-1.571,0.744-3.038,1.571-4.402,2.48
				c-1.363,0.91-2.625,1.859-3.781,2.852v32.984h9.548v13.516h-23.932v-9.548v-43.523h-10.664v-13.517h25.048v3.968
				c2.81-1.652,5.744-2.995,8.804-4.029c3.058-1.033,6.281-1.551,9.672-1.551c2.81,0,5.395,0.415,7.75,1.24
				c2.356,0.827,4.483,2.191,6.386,4.092c3.637,3.556,5.456,8.227,5.456,14.013v35.34h9.301v13.516H1425.886z"/>
			<path fill="#0C3535" d="M1502.891,193.523v-5.456c-0.744,0.663-1.51,1.24-2.294,1.736c-0.787,0.496-1.593,0.949-2.418,1.364
				c-4.464,2.148-9.136,3.224-14.012,3.224c-9.425,0-17.279-3.267-23.561-9.796c-6.283-6.529-9.424-14.632-9.424-24.304
				c0-10.002,3.058-18.31,9.176-24.925c6.2-6.695,14.012-10.044,23.437-10.044c5.041,0,9.753,1.159,14.136,3.473
				c1.817,0.91,3.472,1.983,4.96,3.224v-21.08v-9.548h14.384v78.616h10.664v13.516H1502.891z M1497.311,144.668
				c-3.72-4.05-8.184-6.076-13.392-6.076c-5.127,0-9.549,2.026-13.269,6.076c-3.639,4.135-5.456,9.343-5.456,15.624
				c0,5.952,1.86,10.912,5.58,14.88s8.185,5.952,13.393,5.952c5.537,0,10.044-1.941,13.516-5.828
				c3.554-3.968,5.332-9.093,5.332-15.376C1503.015,153.803,1501.112,148.719,1497.311,144.668z"/>
			<path fill="#0C3535" d="M1586.715,185.092c-6.283,6.777-14.22,10.168-23.809,10.168c-9.59,0-17.526-3.391-23.808-10.168
				c-6.283-6.777-9.424-15.045-9.424-24.8c0-9.754,3.141-18.021,9.424-24.801c6.281-6.777,14.218-10.168,23.808-10.168
				c9.589,0,17.525,3.391,23.809,10.168c6.281,6.779,9.424,15.047,9.424,24.801C1596.139,170.047,1592.996,178.314,1586.715,185.092
				z M1576.299,144.916c-3.473-3.885-7.937-5.828-13.393-5.828s-9.92,1.943-13.392,5.828c-3.556,3.968-5.332,9.095-5.332,15.376
				c0,6.283,1.776,11.407,5.332,15.376c3.472,3.887,7.936,5.828,13.392,5.828s9.92-1.941,13.393-5.828
				c3.553-3.969,5.332-9.093,5.332-15.376C1581.631,154.011,1579.852,148.884,1576.299,144.916z"/>
		</g>
		<path fill="#0C3535" d="M141.732,0C63.456,0,0,63.461,0,141.732c0,78.277,63.456,141.732,141.732,141.732
			c78.271,0,141.732-63.455,141.732-141.732C283.465,63.461,220.004,0,141.732,0z M230.217,228.343
			c-0.905-40.981-29.631-75.03-68.034-84.137c-9.654-4.55-16.921-13.299-19.412-23.944c7.924,6.038,17.774,9.66,28.489,9.66
			c23.721,0,43.352-17.59,46.69-40.394c-8.062-14.538-23.011-24.567-40.785-24.567c-15.582,0-29.371,7.618-37.97,19.291
			c-0.825-9.914-5.798-18.521-16.062-24.009c-11.569-5.346-19.236-2.846-25.375-0.882c-5.694,7.536-12.971,25.122,1.789,40.221
			c13.017,13.315,30.771,7,30.771,7c-1.923,13.649,3.559,27.117,10.109,35.214c-47.682,0.698-86.195,39.043-87.187,86.656
			c-21.944-22.382-35.525-52.977-35.525-86.72c0-68.381,55.635-124.016,124.016-124.016s124.016,55.635,124.016,124.016
			C265.748,175.447,252.132,205.973,230.217,228.343z"/>
		<path fill="#B2C04B" d="M142.8,103.71c3.812-15.456,17.733-26.938,34.365-26.938c11.679,0,22.008,5.675,28.461,14.395
			c-3.812,15.462-17.728,26.944-34.366,26.944C159.582,118.11,149.253,112.43,142.8,103.71z"/>
		<path fill="#B2C04B" d="M124.927,95.792c-16.986,4.19-27.361-13.935-19.539-26.229C123.44,65.607,132.315,84.732,124.927,95.792z"
			/>
		<path fill="#32BFC1" d="M117.09,263.205c-16.28-3.305-31.448-9.729-44.747-18.743c-0.935-4.573-3.445-15.898,1.338-33.727
			c5.732,11.604,14.442,27.23,23.622,33.276C119.397,258.563,120.006,251.513,117.09,263.205z"/>
		<path fill="#32BFC1" d="M198.665,217.622c-7.399,11.603-21.107,28.507-4.752,30.093c3.553,0.346,6.147,1.147,8.045,2.301
			c-16.062,8.968-34.303,14.389-53.715,15.404c-10.865-4.995-22.97-8.646-24.545-10.854c-2.635-3.685-33.795-20.588-26.926-26.921
			c6.868-6.338,20.588,5.577,24.942,4.216c5.508-1.718-5.058-10.663,0.929-17.405c5.992-6.747,16.407-11.102,13.218-31.159
			c-1.407-8.823-3.011-17.128-5.715-22.814c31.917-5.084,56.188,10.669,69.066,28.547c-2.07,1.568-5.288,4.833-5.3,10.109
			c-0.012,7.746,2.816,5.927,14.256,6.742c1.067,2.896,1.979,5.859,2.665,8.916C207.027,212.604,202.327,211.872,198.665,217.622z"
			/>
	</g>
</g>
</svg>
